<?xml version="1.0" encoding="utf-8" standalone="no"?>
<!DOCTYPE svg PUBLIC "-//W3C//DTD SVG 1.1//EN"
  "http://www.w3.org/Graphics/SVG/1.1/DTD/svg11.dtd">
<svg xmlns:xlink="http://www.w3.org/1999/xlink" width="392.824609pt" height="365.617094pt" viewBox="0 0 392.824609 365.617094" xmlns="http://www.w3.org/2000/svg" version="1.1">
 <metadata>
  <rdf:RDF xmlns:dc="http://purl.org/dc/elements/1.1/" xmlns:cc="http://creativecommons.org/ns#" xmlns:rdf="http://www.w3.org/1999/02/22-rdf-syntax-ns#">
   <cc:Work>
    <dc:type rdf:resource="http://purl.org/dc/dcmitype/StillImage"/>
    <dc:date>2026-07-19T09:39:56.080938</dc:date>
    <dc:format>image/svg+xml</dc:format>
    <dc:creator>
     <cc:Agent>
      <dc:title>Matplotlib v3.11.1, https://matplotlib.org/</dc:title>
     </cc:Agent>
    </dc:creator>
   </cc:Work>
  </rdf:RDF>
 </metadata>
 <defs>
  <style type="text/css">*{stroke-linejoin: round; stroke-linecap: butt}</style>
 </defs>
 <g id="figure_1">
  <g id="patch_1">
   <path d="M 0 365.617094 
L 392.824609 365.617094 
L 392.824609 0 
L 0 0 
z
" style="fill: #ffffff"/>
  </g>
  <g id="axes_1">
   <g id="patch_2">
    <path d="M 44.545703 194.790258 
L 209.015156 194.790258 
L 209.015156 77.10725 
L 44.545703 77.10725 
z
" style="fill: #ffffff"/>
   </g>
   <g id="matplotlib.axis_1">
    <g id="xtick_1">
     <g id="line2d_1">
      <defs>
       <path id="mf5dbd6f67f" d="M 0 0 
L 0 3.5 
" style="stroke: #000000; stroke-width: 0.8"/>
      </defs>
      <g>
       <use xlink:href="#mf5dbd6f67f" x="50.031259" y="194.790258" style="stroke: #000000; stroke-width: 0.8"/>
      </g>
     </g>
    </g>
    <g id="xtick_2">
     <g id="line2d_2">
      <g>
       <use xlink:href="#mf5dbd6f67f" x="71.454335" y="194.790258" style="stroke: #000000; stroke-width: 0.8"/>
      </g>
     </g>
    </g>
    <g id="xtick_3">
     <g id="line2d_3">
      <g>
       <use xlink:href="#mf5dbd6f67f" x="92.877412" y="194.790258" style="stroke: #000000; stroke-width: 0.8"/>
      </g>
     </g>
    </g>
    <g id="xtick_4">
     <g id="line2d_4">
      <g>
       <use xlink:href="#mf5dbd6f67f" x="114.300489" y="194.790258" style="stroke: #000000; stroke-width: 0.8"/>
      </g>
     </g>
    </g>
    <g id="xtick_5">
     <g id="line2d_5">
      <g>
       <use xlink:href="#mf5dbd6f67f" x="135.723566" y="194.790258" style="stroke: #000000; stroke-width: 0.8"/>
      </g>
     </g>
    </g>
    <g id="xtick_6">
     <g id="line2d_6">
      <g>
       <use xlink:href="#mf5dbd6f67f" x="157.146642" y="194.790258" style="stroke: #000000; stroke-width: 0.8"/>
      </g>
     </g>
    </g>
    <g id="xtick_7">
     <g id="line2d_7">
      <g>
       <use xlink:href="#mf5dbd6f67f" x="178.569719" y="194.790258" style="stroke: #000000; stroke-width: 0.8"/>
      </g>
     </g>
    </g>
    <g id="xtick_8">
     <g id="line2d_8">
      <g>
       <use xlink:href="#mf5dbd6f67f" x="199.992796" y="194.790258" style="stroke: #000000; stroke-width: 0.8"/>
      </g>
     </g>
    </g>
   </g>
   <g id="matplotlib.axis_2">
    <g id="ytick_1">
     <g id="line2d_9">
      <defs>
       <path id="mb73866083d" d="M 0 0 
L -3.5 0 
" style="stroke: #000000; stroke-width: 0.8"/>
      </defs>
      <g>
       <use xlink:href="#mb73866083d" x="44.545703" y="189.44103" style="stroke: #000000; stroke-width: 0.8"/>
      </g>
     </g>
     <g id="text_1">
      <!-- 0.0 -->
      <g transform="translate(28.003828 191.720327) scale(0.06 -0.06)">
       <defs>
        <path id="DejaVuSans-13" d="M 2034 4250 
Q 1547 4250 1301 3770 
Q 1056 3291 1056 2328 
Q 1056 1369 1301 889 
Q 1547 409 2034 409 
Q 2525 409 2770 889 
Q 3016 1369 3016 2328 
Q 3016 3291 2770 3770 
Q 2525 4250 2034 4250 
z
M 2034 4750 
Q 2819 4750 3233 4129 
Q 3647 3509 3647 2328 
Q 3647 1150 3233 529 
Q 2819 -91 2034 -91 
Q 1250 -91 836 529 
Q 422 1150 422 2328 
Q 422 3509 836 4129 
Q 1250 4750 2034 4750 
z
" transform="scale(0.015625)"/>
        <path id="DejaVuSans-11" d="M 684 794 
L 1344 794 
L 1344 0 
L 684 0 
L 684 794 
z
" transform="scale(0.015625)"/>
       </defs>
       <use xlink:href="#DejaVuSans-13"/>
       <use xlink:href="#DejaVuSans-11" transform="translate(63.625 0)"/>
       <use xlink:href="#DejaVuSans-13" transform="translate(95.40625 0)"/>
      </g>
     </g>
    </g>
    <g id="ytick_2">
     <g id="line2d_10">
      <g>
       <use xlink:href="#mb73866083d" x="44.545703" y="175.29146" style="stroke: #000000; stroke-width: 0.8"/>
      </g>
     </g>
     <g id="text_2">
      <!-- 0.1 -->
      <g transform="translate(28.003828 177.570757) scale(0.06 -0.06)">
       <defs>
        <path id="DejaVuSans-14" d="M 794 531 
L 1825 531 
L 1825 4091 
L 703 3866 
L 703 4441 
L 1819 4666 
L 2450 4666 
L 2450 531 
L 3481 531 
L 3481 0 
L 794 0 
L 794 531 
z
" transform="scale(0.015625)"/>
       </defs>
       <use xlink:href="#DejaVuSans-13"/>
       <use xlink:href="#DejaVuSans-11" transform="translate(63.625 0)"/>
       <use xlink:href="#DejaVuSans-14" transform="translate(95.40625 0)"/>
      </g>
     </g>
    </g>
    <g id="ytick_3">
     <g id="line2d_11">
      <g>
       <use xlink:href="#mb73866083d" x="44.545703" y="161.14189" style="stroke: #000000; stroke-width: 0.8"/>
      </g>
     </g>
     <g id="text_3">
      <!-- 0.2 -->
      <g transform="translate(28.003828 163.421187) scale(0.06 -0.06)">
       <defs>
        <path id="DejaVuSans-15" d="M 1228 531 
L 3431 531 
L 3431 0 
L 469 0 
L 469 531 
Q 828 903 1448 1529 
Q 2069 2156 2228 2338 
Q 2531 2678 2651 2914 
Q 2772 3150 2772 3378 
Q 2772 3750 2511 3984 
Q 2250 4219 1831 4219 
Q 1534 4219 1204 4116 
Q 875 4013 500 3803 
L 500 4441 
Q 881 4594 1212 4672 
Q 1544 4750 1819 4750 
Q 2544 4750 2975 4387 
Q 3406 4025 3406 3419 
Q 3406 3131 3298 2873 
Q 3191 2616 2906 2266 
Q 2828 2175 2409 1742 
Q 1991 1309 1228 531 
z
" transform="scale(0.015625)"/>
       </defs>
       <use xlink:href="#DejaVuSans-13"/>
       <use xlink:href="#DejaVuSans-11" transform="translate(63.625 0)"/>
       <use xlink:href="#DejaVuSans-15" transform="translate(95.40625 0)"/>
      </g>
     </g>
    </g>
    <g id="ytick_4">
     <g id="line2d_12">
      <g>
       <use xlink:href="#mb73866083d" x="44.545703" y="146.992321" style="stroke: #000000; stroke-width: 0.8"/>
      </g>
     </g>
     <g id="text_4">
      <!-- 0.3 -->
      <g transform="translate(28.003828 149.271617) scale(0.06 -0.06)">
       <defs>
        <path id="DejaVuSans-16" d="M 2597 2516 
Q 3050 2419 3304 2112 
Q 3559 1806 3559 1356 
Q 3559 666 3084 287 
Q 2609 -91 1734 -91 
Q 1441 -91 1130 -33 
Q 819 25 488 141 
L 488 750 
Q 750 597 1062 519 
Q 1375 441 1716 441 
Q 2309 441 2620 675 
Q 2931 909 2931 1356 
Q 2931 1769 2642 2001 
Q 2353 2234 1838 2234 
L 1294 2234 
L 1294 2753 
L 1863 2753 
Q 2328 2753 2575 2939 
Q 2822 3125 2822 3475 
Q 2822 3834 2567 4026 
Q 2313 4219 1838 4219 
Q 1578 4219 1281 4162 
Q 984 4106 628 3988 
L 628 4550 
Q 988 4650 1302 4700 
Q 1616 4750 1894 4750 
Q 2613 4750 3031 4423 
Q 3450 4097 3450 3541 
Q 3450 3153 3228 2886 
Q 3006 2619 2597 2516 
z
" transform="scale(0.015625)"/>
       </defs>
       <use xlink:href="#DejaVuSans-13"/>
       <use xlink:href="#DejaVuSans-11" transform="translate(63.625 0)"/>
       <use xlink:href="#DejaVuSans-16" transform="translate(95.40625 0)"/>
      </g>
     </g>
    </g>
    <g id="ytick_5">
     <g id="line2d_13">
      <g>
       <use xlink:href="#mb73866083d" x="44.545703" y="132.842751" style="stroke: #000000; stroke-width: 0.8"/>
      </g>
     </g>
     <g id="text_5">
      <!-- 0.4 -->
      <g transform="translate(28.003828 135.122048) scale(0.06 -0.06)">
       <defs>
        <path id="DejaVuSans-17" d="M 2419 4116 
L 825 1625 
L 2419 1625 
L 2419 4116 
z
M 2253 4666 
L 3047 4666 
L 3047 1625 
L 3713 1625 
L 3713 1100 
L 3047 1100 
L 3047 0 
L 2419 0 
L 2419 1100 
L 313 1100 
L 313 1709 
L 2253 4666 
z
" transform="scale(0.015625)"/>
       </defs>
       <use xlink:href="#DejaVuSans-13"/>
       <use xlink:href="#DejaVuSans-11" transform="translate(63.625 0)"/>
       <use xlink:href="#DejaVuSans-17" transform="translate(95.40625 0)"/>
      </g>
     </g>
    </g>
    <g id="ytick_6">
     <g id="line2d_14">
      <g>
       <use xlink:href="#mb73866083d" x="44.545703" y="118.693181" style="stroke: #000000; stroke-width: 0.8"/>
      </g>
     </g>
     <g id="text_6">
      <!-- 0.5 -->
      <g transform="translate(28.003828 120.972478) scale(0.06 -0.06)">
       <defs>
        <path id="DejaVuSans-18" d="M 691 4666 
L 3169 4666 
L 3169 4134 
L 1269 4134 
L 1269 2991 
Q 1406 3038 1543 3061 
Q 1681 3084 1819 3084 
Q 2600 3084 3056 2656 
Q 3513 2228 3513 1497 
Q 3513 744 3044 326 
Q 2575 -91 1722 -91 
Q 1428 -91 1123 -41 
Q 819 9 494 109 
L 494 744 
Q 775 591 1075 516 
Q 1375 441 1709 441 
Q 2250 441 2565 725 
Q 2881 1009 2881 1497 
Q 2881 1984 2565 2268 
Q 2250 2553 1709 2553 
Q 1456 2553 1204 2497 
Q 953 2441 691 2322 
L 691 4666 
z
" transform="scale(0.015625)"/>
       </defs>
       <use xlink:href="#DejaVuSans-13"/>
       <use xlink:href="#DejaVuSans-11" transform="translate(63.625 0)"/>
       <use xlink:href="#DejaVuSans-18" transform="translate(95.40625 0)"/>
      </g>
     </g>
    </g>
    <g id="ytick_7">
     <g id="line2d_15">
      <g>
       <use xlink:href="#mb73866083d" x="44.545703" y="104.543611" style="stroke: #000000; stroke-width: 0.8"/>
      </g>
     </g>
     <g id="text_7">
      <!-- 0.6 -->
      <g transform="translate(28.003828 106.822908) scale(0.06 -0.06)">
       <defs>
        <path id="DejaVuSans-19" d="M 2113 2584 
Q 1688 2584 1439 2293 
Q 1191 2003 1191 1497 
Q 1191 994 1439 701 
Q 1688 409 2113 409 
Q 2538 409 2786 701 
Q 3034 994 3034 1497 
Q 3034 2003 2786 2293 
Q 2538 2584 2113 2584 
z
M 3366 4563 
L 3366 3988 
Q 3128 4100 2886 4159 
Q 2644 4219 2406 4219 
Q 1781 4219 1451 3797 
Q 1122 3375 1075 2522 
Q 1259 2794 1537 2939 
Q 1816 3084 2150 3084 
Q 2853 3084 3261 2657 
Q 3669 2231 3669 1497 
Q 3669 778 3244 343 
Q 2819 -91 2113 -91 
Q 1303 -91 875 529 
Q 447 1150 447 2328 
Q 447 3434 972 4092 
Q 1497 4750 2381 4750 
Q 2619 4750 2861 4703 
Q 3103 4656 3366 4563 
z
" transform="scale(0.015625)"/>
       </defs>
       <use xlink:href="#DejaVuSans-13"/>
       <use xlink:href="#DejaVuSans-11" transform="translate(63.625 0)"/>
       <use xlink:href="#DejaVuSans-19" transform="translate(95.40625 0)"/>
      </g>
     </g>
    </g>
    <g id="ytick_8">
     <g id="line2d_16">
      <g>
       <use xlink:href="#mb73866083d" x="44.545703" y="90.394041" style="stroke: #000000; stroke-width: 0.8"/>
      </g>
     </g>
     <g id="text_8">
      <!-- 0.7 -->
      <g transform="translate(28.003828 92.673338) scale(0.06 -0.06)">
       <defs>
        <path id="DejaVuSans-1a" d="M 525 4666 
L 3525 4666 
L 3525 4397 
L 1831 0 
L 1172 0 
L 2766 4134 
L 525 4134 
L 525 4666 
z
" transform="scale(0.015625)"/>
       </defs>
       <use xlink:href="#DejaVuSans-13"/>
       <use xlink:href="#DejaVuSans-11" transform="translate(63.625 0)"/>
       <use xlink:href="#DejaVuSans-1a" transform="translate(95.40625 0)"/>
      </g>
     </g>
    </g>
    <g id="text_9">
     <!-- pressing_accuracy_y -->
     <g transform="translate(13.21959 172.108129) rotate(-90) scale(0.07 -0.07)">
      <defs>
       <path id="DejaVuSans-53" d="M 1159 525 
L 1159 -1331 
L 581 -1331 
L 581 3500 
L 1159 3500 
L 1159 2969 
Q 1341 3281 1617 3432 
Q 1894 3584 2278 3584 
Q 2916 3584 3314 3078 
Q 3713 2572 3713 1747 
Q 3713 922 3314 415 
Q 2916 -91 2278 -91 
Q 1894 -91 1617 61 
Q 1341 213 1159 525 
z
M 3116 1747 
Q 3116 2381 2855 2742 
Q 2594 3103 2138 3103 
Q 1681 3103 1420 2742 
Q 1159 2381 1159 1747 
Q 1159 1113 1420 752 
Q 1681 391 2138 391 
Q 2594 391 2855 752 
Q 3116 1113 3116 1747 
z
" transform="scale(0.015625)"/>
       <path id="DejaVuSans-55" d="M 2631 2963 
Q 2534 3019 2420 3045 
Q 2306 3072 2169 3072 
Q 1681 3072 1420 2755 
Q 1159 2438 1159 1844 
L 1159 0 
L 581 0 
L 581 3500 
L 1159 3500 
L 1159 2956 
Q 1341 3275 1631 3429 
Q 1922 3584 2338 3584 
Q 2397 3584 2469 3576 
Q 2541 3569 2628 3553 
L 2631 2963 
z
" transform="scale(0.015625)"/>
       <path id="DejaVuSans-48" d="M 3597 1894 
L 3597 1613 
L 953 1613 
Q 991 1019 1311 708 
Q 1631 397 2203 397 
Q 2534 397 2845 478 
Q 3156 559 3463 722 
L 3463 178 
Q 3153 47 2828 -22 
Q 2503 -91 2169 -91 
Q 1331 -91 842 396 
Q 353 884 353 1716 
Q 353 2575 817 3079 
Q 1281 3584 2069 3584 
Q 2775 3584 3186 3129 
Q 3597 2675 3597 1894 
z
M 3022 2063 
Q 3016 2534 2758 2815 
Q 2500 3097 2075 3097 
Q 1594 3097 1305 2825 
Q 1016 2553 972 2059 
L 3022 2063 
z
" transform="scale(0.015625)"/>
       <path id="DejaVuSans-56" d="M 2834 3397 
L 2834 2853 
Q 2591 2978 2328 3040 
Q 2066 3103 1784 3103 
Q 1356 3103 1142 2972 
Q 928 2841 928 2578 
Q 928 2378 1081 2264 
Q 1234 2150 1697 2047 
L 1894 2003 
Q 2506 1872 2764 1633 
Q 3022 1394 3022 966 
Q 3022 478 2636 193 
Q 2250 -91 1575 -91 
Q 1294 -91 989 -36 
Q 684 19 347 128 
L 347 722 
Q 666 556 975 473 
Q 1284 391 1588 391 
Q 1994 391 2212 530 
Q 2431 669 2431 922 
Q 2431 1156 2273 1281 
Q 2116 1406 1581 1522 
L 1381 1569 
Q 847 1681 609 1914 
Q 372 2147 372 2553 
Q 372 3047 722 3315 
Q 1072 3584 1716 3584 
Q 2034 3584 2315 3537 
Q 2597 3491 2834 3397 
z
" transform="scale(0.015625)"/>
       <path id="DejaVuSans-4c" d="M 603 3500 
L 1178 3500 
L 1178 0 
L 603 0 
L 603 3500 
z
M 603 4863 
L 1178 4863 
L 1178 4134 
L 603 4134 
L 603 4863 
z
" transform="scale(0.015625)"/>
       <path id="DejaVuSans-51" d="M 3513 2113 
L 3513 0 
L 2938 0 
L 2938 2094 
Q 2938 2591 2744 2837 
Q 2550 3084 2163 3084 
Q 1697 3084 1428 2787 
Q 1159 2491 1159 1978 
L 1159 0 
L 581 0 
L 581 3500 
L 1159 3500 
L 1159 2956 
Q 1366 3272 1645 3428 
Q 1925 3584 2291 3584 
Q 2894 3584 3203 3211 
Q 3513 2838 3513 2113 
z
" transform="scale(0.015625)"/>
       <path id="DejaVuSans-4a" d="M 2906 1791 
Q 2906 2416 2648 2759 
Q 2391 3103 1925 3103 
Q 1463 3103 1205 2759 
Q 947 2416 947 1791 
Q 947 1169 1205 825 
Q 1463 481 1925 481 
Q 2391 481 2648 825 
Q 2906 1169 2906 1791 
z
M 3481 434 
Q 3481 -459 3084 -895 
Q 2688 -1331 1869 -1331 
Q 1566 -1331 1297 -1286 
Q 1028 -1241 775 -1147 
L 775 -588 
Q 1028 -725 1275 -790 
Q 1522 -856 1778 -856 
Q 2344 -856 2625 -561 
Q 2906 -266 2906 331 
L 2906 616 
Q 2728 306 2450 153 
Q 2172 0 1784 0 
Q 1141 0 747 490 
Q 353 981 353 1791 
Q 353 2603 747 3093 
Q 1141 3584 1784 3584 
Q 2172 3584 2450 3431 
Q 2728 3278 2906 2969 
L 2906 3500 
L 3481 3500 
L 3481 434 
z
" transform="scale(0.015625)"/>
       <path id="DejaVuSans-42" d="M 3263 -1063 
L 3263 -1509 
L -63 -1509 
L -63 -1063 
L 3263 -1063 
z
" transform="scale(0.015625)"/>
       <path id="DejaVuSans-44" d="M 2194 1759 
Q 1497 1759 1228 1600 
Q 959 1441 959 1056 
Q 959 750 1161 570 
Q 1363 391 1709 391 
Q 2188 391 2477 730 
Q 2766 1069 2766 1631 
L 2766 1759 
L 2194 1759 
z
M 3341 1997 
L 3341 0 
L 2766 0 
L 2766 531 
Q 2569 213 2275 61 
Q 1981 -91 1556 -91 
Q 1019 -91 701 211 
Q 384 513 384 1019 
Q 384 1609 779 1909 
Q 1175 2209 1959 2209 
L 2766 2209 
L 2766 2266 
Q 2766 2663 2505 2880 
Q 2244 3097 1772 3097 
Q 1472 3097 1187 3025 
Q 903 2953 641 2809 
L 641 3341 
Q 956 3463 1253 3523 
Q 1550 3584 1831 3584 
Q 2591 3584 2966 3190 
Q 3341 2797 3341 1997 
z
" transform="scale(0.015625)"/>
       <path id="DejaVuSans-46" d="M 3122 3366 
L 3122 2828 
Q 2878 2963 2633 3030 
Q 2388 3097 2138 3097 
Q 1578 3097 1268 2742 
Q 959 2388 959 1747 
Q 959 1106 1268 751 
Q 1578 397 2138 397 
Q 2388 397 2633 464 
Q 2878 531 3122 666 
L 3122 134 
Q 2881 22 2623 -34 
Q 2366 -91 2075 -91 
Q 1284 -91 818 406 
Q 353 903 353 1747 
Q 353 2603 823 3093 
Q 1294 3584 2113 3584 
Q 2378 3584 2631 3529 
Q 2884 3475 3122 3366 
z
" transform="scale(0.015625)"/>
       <path id="DejaVuSans-58" d="M 544 1381 
L 544 3500 
L 1119 3500 
L 1119 1403 
Q 1119 906 1312 657 
Q 1506 409 1894 409 
Q 2359 409 2629 706 
Q 2900 1003 2900 1516 
L 2900 3500 
L 3475 3500 
L 3475 0 
L 2900 0 
L 2900 538 
Q 2691 219 2414 64 
Q 2138 -91 1772 -91 
Q 1169 -91 856 284 
Q 544 659 544 1381 
z
M 1991 3584 
L 1991 3584 
z
" transform="scale(0.015625)"/>
       <path id="DejaVuSans-5c" d="M 2059 -325 
Q 1816 -950 1584 -1140 
Q 1353 -1331 966 -1331 
L 506 -1331 
L 506 -850 
L 844 -850 
Q 1081 -850 1212 -737 
Q 1344 -625 1503 -206 
L 1606 56 
L 191 3500 
L 800 3500 
L 1894 763 
L 2988 3500 
L 3597 3500 
L 2059 -325 
z
" transform="scale(0.015625)"/>
      </defs>
      <use xlink:href="#DejaVuSans-53"/>
      <use xlink:href="#DejaVuSans-55" transform="translate(63.484375 0)"/>
      <use xlink:href="#DejaVuSans-48" transform="translate(102.390625 0)"/>
      <use xlink:href="#DejaVuSans-56" transform="translate(163.921875 0)"/>
      <use xlink:href="#DejaVuSans-56" transform="translate(216.015625 0)"/>
      <use xlink:href="#DejaVuSans-4c" transform="translate(268.109375 0)"/>
      <use xlink:href="#DejaVuSans-51" transform="translate(295.890625 0)"/>
      <use xlink:href="#DejaVuSans-4a" transform="translate(359.265625 0)"/>
      <use xlink:href="#DejaVuSans-42" transform="translate(422.75 0)"/>
      <use xlink:href="#DejaVuSans-44" transform="translate(472.75 0)"/>
      <use xlink:href="#DejaVuSans-46" transform="translate(534.03125 0)"/>
      <use xlink:href="#DejaVuSans-46" transform="translate(589.015625 0)"/>
      <use xlink:href="#DejaVuSans-58" transform="translate(644 0)"/>
      <use xlink:href="#DejaVuSans-55" transform="translate(707.375 0)"/>
      <use xlink:href="#DejaVuSans-44" transform="translate(748.484375 0)"/>
      <use xlink:href="#DejaVuSans-46" transform="translate(809.765625 0)"/>
      <use xlink:href="#DejaVuSans-5c" transform="translate(864.75 0)"/>
      <use xlink:href="#DejaVuSans-42" transform="translate(923.9375 0)"/>
      <use xlink:href="#DejaVuSans-5c" transform="translate(973.9375 0)"/>
     </g>
     <!-- (Signal Value) -->
     <g transform="translate(21.621504 160.155082) rotate(-90) scale(0.07 -0.07)">
      <defs>
       <path id="DejaVuSans-b" d="M 1984 4856 
Q 1566 4138 1362 3434 
Q 1159 2731 1159 2009 
Q 1159 1288 1364 580 
Q 1569 -128 1984 -844 
L 1484 -844 
Q 1016 -109 783 600 
Q 550 1309 550 2009 
Q 550 2706 781 3412 
Q 1013 4119 1484 4856 
L 1984 4856 
z
" transform="scale(0.015625)"/>
       <path id="DejaVuSans-36" d="M 3425 4513 
L 3425 3897 
Q 3066 4069 2747 4153 
Q 2428 4238 2131 4238 
Q 1616 4238 1336 4038 
Q 1056 3838 1056 3469 
Q 1056 3159 1242 3001 
Q 1428 2844 1947 2747 
L 2328 2669 
Q 3034 2534 3370 2195 
Q 3706 1856 3706 1288 
Q 3706 609 3251 259 
Q 2797 -91 1919 -91 
Q 1588 -91 1214 -16 
Q 841 59 441 206 
L 441 856 
Q 825 641 1194 531 
Q 1563 422 1919 422 
Q 2459 422 2753 634 
Q 3047 847 3047 1241 
Q 3047 1584 2836 1778 
Q 2625 1972 2144 2069 
L 1759 2144 
Q 1053 2284 737 2584 
Q 422 2884 422 3419 
Q 422 4038 858 4394 
Q 1294 4750 2059 4750 
Q 2388 4750 2728 4690 
Q 3069 4631 3425 4513 
z
" transform="scale(0.015625)"/>
       <path id="DejaVuSans-4f" d="M 603 4863 
L 1178 4863 
L 1178 0 
L 603 0 
L 603 4863 
z
" transform="scale(0.015625)"/>
       <path id="DejaVuSans-3" transform="scale(0.015625)"/>
       <path id="DejaVuSans-39" d="M 1831 0 
L 50 4666 
L 709 4666 
L 2188 738 
L 3669 4666 
L 4325 4666 
L 2547 0 
L 1831 0 
z
" transform="scale(0.015625)"/>
       <path id="DejaVuSans-c" d="M 513 4856 
L 1013 4856 
Q 1481 4119 1714 3412 
Q 1947 2706 1947 2009 
Q 1947 1309 1714 600 
Q 1481 -109 1013 -844 
L 513 -844 
Q 928 -128 1133 580 
Q 1338 1288 1338 2009 
Q 1338 2731 1133 3434 
Q 928 4138 513 4856 
z
" transform="scale(0.015625)"/>
      </defs>
      <use xlink:href="#DejaVuSans-b"/>
      <use xlink:href="#DejaVuSans-36" transform="translate(39.015625 0)"/>
      <use xlink:href="#DejaVuSans-4c" transform="translate(102.5 0)"/>
      <use xlink:href="#DejaVuSans-4a" transform="translate(130.28125 0)"/>
      <use xlink:href="#DejaVuSans-51" transform="translate(193.765625 0)"/>
      <use xlink:href="#DejaVuSans-44" transform="translate(257.140625 0)"/>
      <use xlink:href="#DejaVuSans-4f" transform="translate(318.421875 0)"/>
      <use xlink:href="#DejaVuSans-3" transform="translate(346.203125 0)"/>
      <use xlink:href="#DejaVuSans-39" transform="translate(377.984375 0)"/>
      <use xlink:href="#DejaVuSans-44" transform="translate(438.625 0)"/>
      <use xlink:href="#DejaVuSans-4f" transform="translate(499.90625 0)"/>
      <use xlink:href="#DejaVuSans-58" transform="translate(527.6875 0)"/>
      <use xlink:href="#DejaVuSans-48" transform="translate(591.0625 0)"/>
      <use xlink:href="#DejaVuSans-c" transform="translate(652.59375 0)"/>
     </g>
    </g>
   </g>
   <g id="patch_3">
    <path d="M 44.545703 194.790258 
L 44.545703 77.10725 
" style="fill: none; stroke: #000000; stroke-width: 0.8; stroke-linejoin: miter; stroke-linecap: square"/>
   </g>
   <g id="patch_4">
    <path d="M 209.015156 194.790258 
L 209.015156 77.10725 
" style="fill: none; stroke: #000000; stroke-width: 0.8; stroke-linejoin: miter; stroke-linecap: square"/>
   </g>
   <g id="patch_5">
    <path d="M 44.545703 194.790258 
L 209.015156 194.790258 
" style="fill: none; stroke: #000000; stroke-width: 0.8; stroke-linejoin: miter; stroke-linecap: square"/>
   </g>
   <g id="patch_6">
    <path d="M 44.545703 77.10725 
L 209.015156 77.10725 
" style="fill: none; stroke: #000000; stroke-width: 0.8; stroke-linejoin: miter; stroke-linecap: square"/>
   </g>
   <g id="PathCollection_1">
    <defs>
     <path id="mfd99c3e302" d="M 0 2.236068 
C 0.593012 2.236068 1.161816 2.000462 1.581139 1.581139 
C 2.000462 1.161816 2.236068 0.593012 2.236068 0 
C 2.236068 -0.593012 2.000462 -1.161816 1.581139 -1.581139 
C 1.161816 -2.000462 0.593012 -2.236068 0 -2.236068 
C -0.593012 -2.236068 -1.161816 -2.000462 -1.581139 -1.581139 
C -2.000462 -1.161816 -2.236068 -0.593012 -2.236068 0 
C -2.236068 0.593012 -2.000462 1.161816 -1.581139 1.581139 
C -1.161816 2.000462 -0.593012 2.236068 0 2.236068 
z
" style="stroke: #ffffff; stroke-opacity: 0.6; stroke-width: 0.3"/>
    </defs>
    <g clip-path="url(#p6efef12bb1)">
     <use xlink:href="#mfd99c3e302" x="201.539272" y="189.44103" style="fill: #4c72b0; fill-opacity: 0.6; stroke: #ffffff; stroke-opacity: 0.6; stroke-width: 0.3"/>
     <use xlink:href="#mfd99c3e302" x="100.513523" y="189.44103" style="fill: #4c72b0; fill-opacity: 0.6; stroke: #ffffff; stroke-opacity: 0.6; stroke-width: 0.3"/>
     <use xlink:href="#mfd99c3e302" x="52.021587" y="189.44103" style="fill: #4c72b0; fill-opacity: 0.6; stroke: #ffffff; stroke-opacity: 0.6; stroke-width: 0.3"/>
    </g>
   </g>
   <g id="text_10">
    <!-- Low Physical Load -->
    <g transform="translate(90.715117 73.10725) scale(0.07 -0.07)">
     <defs>
      <path id="DejaVuSans-Bold-2f" d="M 588 4666 
L 1791 4666 
L 1791 909 
L 3903 909 
L 3903 0 
L 588 0 
L 588 4666 
z
" transform="scale(0.015625)"/>
      <path id="DejaVuSans-Bold-52" d="M 2203 2784 
Q 1831 2784 1636 2517 
Q 1441 2250 1441 1747 
Q 1441 1244 1636 976 
Q 1831 709 2203 709 
Q 2569 709 2762 976 
Q 2956 1244 2956 1747 
Q 2956 2250 2762 2517 
Q 2569 2784 2203 2784 
z
M 2203 3584 
Q 3106 3584 3614 3096 
Q 4122 2609 4122 1747 
Q 4122 884 3614 396 
Q 3106 -91 2203 -91 
Q 1297 -91 786 396 
Q 275 884 275 1747 
Q 275 2609 786 3096 
Q 1297 3584 2203 3584 
z
" transform="scale(0.015625)"/>
      <path id="DejaVuSans-Bold-5a" d="M 225 3500 
L 1313 3500 
L 1900 1088 
L 2491 3500 
L 3425 3500 
L 4013 1113 
L 4603 3500 
L 5691 3500 
L 4769 0 
L 3547 0 
L 2956 2406 
L 2369 0 
L 1147 0 
L 225 3500 
z
" transform="scale(0.015625)"/>
      <path id="DejaVuSans-Bold-3" transform="scale(0.015625)"/>
      <path id="DejaVuSans-Bold-33" d="M 588 4666 
L 2584 4666 
Q 3475 4666 3951 4270 
Q 4428 3875 4428 3144 
Q 4428 2409 3951 2014 
Q 3475 1619 2584 1619 
L 1791 1619 
L 1791 0 
L 588 0 
L 588 4666 
z
M 1791 3794 
L 1791 2491 
L 2456 2491 
Q 2806 2491 2997 2661 
Q 3188 2831 3188 3144 
Q 3188 3456 2997 3625 
Q 2806 3794 2456 3794 
L 1791 3794 
z
" transform="scale(0.015625)"/>
      <path id="DejaVuSans-Bold-4b" d="M 4056 2131 
L 4056 0 
L 2931 0 
L 2931 347 
L 2931 1625 
Q 2931 2084 2911 2256 
Q 2891 2428 2841 2509 
Q 2775 2619 2662 2680 
Q 2550 2741 2406 2741 
Q 2056 2741 1856 2470 
Q 1656 2200 1656 1722 
L 1656 0 
L 538 0 
L 538 4863 
L 1656 4863 
L 1656 2988 
Q 1909 3294 2193 3439 
Q 2478 3584 2822 3584 
Q 3428 3584 3742 3212 
Q 4056 2841 4056 2131 
z
" transform="scale(0.015625)"/>
      <path id="DejaVuSans-Bold-5c" d="M 78 3500 
L 1197 3500 
L 2138 1125 
L 2938 3500 
L 4056 3500 
L 2584 -331 
Q 2363 -916 2067 -1148 
Q 1772 -1381 1288 -1381 
L 641 -1381 
L 641 -647 
L 991 -647 
Q 1275 -647 1404 -556 
Q 1534 -466 1606 -231 
L 1638 -134 
L 78 3500 
z
" transform="scale(0.015625)"/>
      <path id="DejaVuSans-Bold-56" d="M 3272 3391 
L 3272 2541 
Q 2913 2691 2578 2766 
Q 2244 2841 1947 2841 
Q 1628 2841 1473 2761 
Q 1319 2681 1319 2516 
Q 1319 2381 1436 2309 
Q 1553 2238 1856 2203 
L 2053 2175 
Q 2913 2066 3209 1816 
Q 3506 1566 3506 1031 
Q 3506 472 3093 190 
Q 2681 -91 1863 -91 
Q 1516 -91 1145 -36 
Q 775 19 384 128 
L 384 978 
Q 719 816 1070 734 
Q 1422 653 1784 653 
Q 2113 653 2278 743 
Q 2444 834 2444 1013 
Q 2444 1163 2330 1236 
Q 2216 1309 1875 1350 
L 1678 1375 
Q 931 1469 631 1722 
Q 331 1975 331 2491 
Q 331 3047 712 3315 
Q 1094 3584 1881 3584 
Q 2191 3584 2531 3537 
Q 2872 3491 3272 3391 
z
" transform="scale(0.015625)"/>
      <path id="DejaVuSans-Bold-4c" d="M 538 3500 
L 1656 3500 
L 1656 0 
L 538 0 
L 538 3500 
z
M 538 4863 
L 1656 4863 
L 1656 3950 
L 538 3950 
L 538 4863 
z
" transform="scale(0.015625)"/>
      <path id="DejaVuSans-Bold-46" d="M 3366 3391 
L 3366 2478 
Q 3138 2634 2908 2709 
Q 2678 2784 2431 2784 
Q 1963 2784 1702 2511 
Q 1441 2238 1441 1747 
Q 1441 1256 1702 982 
Q 1963 709 2431 709 
Q 2694 709 2930 787 
Q 3166 866 3366 1019 
L 3366 103 
Q 3103 6 2833 -42 
Q 2563 -91 2291 -91 
Q 1344 -91 809 395 
Q 275 881 275 1747 
Q 275 2613 809 3098 
Q 1344 3584 2291 3584 
Q 2566 3584 2833 3536 
Q 3100 3488 3366 3391 
z
" transform="scale(0.015625)"/>
      <path id="DejaVuSans-Bold-44" d="M 2106 1575 
Q 1756 1575 1579 1456 
Q 1403 1338 1403 1106 
Q 1403 894 1545 773 
Q 1688 653 1941 653 
Q 2256 653 2472 879 
Q 2688 1106 2688 1447 
L 2688 1575 
L 2106 1575 
z
M 3816 1997 
L 3816 0 
L 2688 0 
L 2688 519 
Q 2463 200 2181 54 
Q 1900 -91 1497 -91 
Q 953 -91 614 226 
Q 275 544 275 1050 
Q 275 1666 698 1953 
Q 1122 2241 2028 2241 
L 2688 2241 
L 2688 2328 
Q 2688 2594 2478 2717 
Q 2269 2841 1825 2841 
Q 1466 2841 1156 2769 
Q 847 2697 581 2553 
L 581 3406 
Q 941 3494 1303 3539 
Q 1666 3584 2028 3584 
Q 2975 3584 3395 3211 
Q 3816 2838 3816 1997 
z
" transform="scale(0.015625)"/>
      <path id="DejaVuSans-Bold-4f" d="M 538 4863 
L 1656 4863 
L 1656 0 
L 538 0 
L 538 4863 
z
" transform="scale(0.015625)"/>
      <path id="DejaVuSans-Bold-47" d="M 2919 2988 
L 2919 4863 
L 4044 4863 
L 4044 0 
L 2919 0 
L 2919 506 
Q 2688 197 2409 53 
Q 2131 -91 1766 -91 
Q 1119 -91 703 423 
Q 288 938 288 1747 
Q 288 2556 703 3070 
Q 1119 3584 1766 3584 
Q 2128 3584 2408 3439 
Q 2688 3294 2919 2988 
z
M 2181 722 
Q 2541 722 2730 984 
Q 2919 1247 2919 1747 
Q 2919 2247 2730 2509 
Q 2541 2772 2181 2772 
Q 1825 2772 1636 2509 
Q 1447 2247 1447 1747 
Q 1447 1247 1636 984 
Q 1825 722 2181 722 
z
" transform="scale(0.015625)"/>
     </defs>
     <use xlink:href="#DejaVuSans-Bold-2f"/>
     <use xlink:href="#DejaVuSans-Bold-52" transform="translate(63.71875 0)"/>
     <use xlink:href="#DejaVuSans-Bold-5a" transform="translate(132.421875 0)"/>
     <use xlink:href="#DejaVuSans-Bold-3" transform="translate(224.8125 0)"/>
     <use xlink:href="#DejaVuSans-Bold-33" transform="translate(259.625 0)"/>
     <use xlink:href="#DejaVuSans-Bold-4b" transform="translate(332.921875 0)"/>
     <use xlink:href="#DejaVuSans-Bold-5c" transform="translate(404.109375 0)"/>
     <use xlink:href="#DejaVuSans-Bold-56" transform="translate(469.296875 0)"/>
     <use xlink:href="#DejaVuSans-Bold-4c" transform="translate(528.8125 0)"/>
     <use xlink:href="#DejaVuSans-Bold-46" transform="translate(563.09375 0)"/>
     <use xlink:href="#DejaVuSans-Bold-44" transform="translate(622.375 0)"/>
     <use xlink:href="#DejaVuSans-Bold-4f" transform="translate(689.859375 0)"/>
     <use xlink:href="#DejaVuSans-Bold-3" transform="translate(724.140625 0)"/>
     <use xlink:href="#DejaVuSans-Bold-2f" transform="translate(758.953125 0)"/>
     <use xlink:href="#DejaVuSans-Bold-52" transform="translate(822.671875 0)"/>
     <use xlink:href="#DejaVuSans-Bold-44" transform="translate(891.375 0)"/>
     <use xlink:href="#DejaVuSans-Bold-47" transform="translate(958.859375 0)"/>
    </g>
   </g>
  </g>
  <g id="axes_2">
   <g id="patch_7">
    <path d="M 221.155156 194.790258 
L 385.624609 194.790258 
L 385.624609 77.10725 
L 221.155156 77.10725 
z
" style="fill: #ffffff"/>
   </g>
   <g id="FillBetweenPolyCollection_1">
    <defs>
     <path id="m74d7a50dad" d="M 229.092476 -198.931928 
L 229.092476 -192.411267 
L 230.593585 -192.988168 
L 232.094695 -193.56436 
L 233.595805 -194.139808 
L 235.096914 -194.714474 
L 236.598024 -195.288318 
L 238.099134 -195.861298 
L 239.600243 -196.433371 
L 241.101353 -197.00449 
L 242.602462 -197.574608 
L 244.103572 -198.143674 
L 245.604682 -198.711635 
L 247.105791 -199.278438 
L 248.606901 -199.844024 
L 250.108011 -200.408337 
L 251.60912 -200.971314 
L 253.11023 -201.532895 
L 254.61134 -202.093014 
L 256.112449 -202.651608 
L 257.613559 -203.208609 
L 259.114669 -203.763953 
L 260.615778 -204.317571 
L 262.116888 -204.869399 
L 263.617998 -205.419369 
L 265.119107 -205.967419 
L 266.620217 -206.513486 
L 268.121327 -207.057511 
L 269.622436 -207.599438 
L 271.123546 -208.139216 
L 272.624656 -208.676797 
L 274.125765 -209.212139 
L 275.626875 -209.745206 
L 277.127985 -210.27597 
L 278.629094 -210.804408 
L 280.130204 -211.330505 
L 281.631314 -211.854254 
L 283.132423 -212.375654 
L 284.633533 -212.894714 
L 286.134643 -213.411449 
L 287.635752 -213.925882 
L 289.136862 -214.438042 
L 290.637972 -214.947966 
L 292.139081 -215.455695 
L 293.640191 -215.961277 
L 295.141301 -216.464764 
L 296.64241 -216.966212 
L 298.14352 -217.465681 
L 299.64463 -217.963233 
L 301.145739 -218.458931 
L 302.646849 -218.952841 
L 304.147958 -219.44503 
L 305.649068 -219.935565 
L 307.150178 -220.424511 
L 308.651287 -220.911934 
L 310.152397 -221.397901 
L 311.653507 -221.882473 
L 313.154616 -222.365714 
L 314.655726 -222.847684 
L 316.156836 -223.328441 
L 317.657945 -223.808042 
L 319.159055 -224.286542 
L 320.660165 -224.763992 
L 322.161274 -225.240444 
L 323.662384 -225.715944 
L 325.163494 -226.190539 
L 326.664603 -226.664273 
L 328.165713 -227.137188 
L 329.666823 -227.609322 
L 331.167932 -228.080714 
L 332.669042 -228.551399 
L 334.170152 -229.021412 
L 335.671261 -229.490784 
L 337.172371 -229.959546 
L 338.673481 -230.427727 
L 340.17459 -230.895355 
L 341.6757 -231.362455 
L 343.17681 -231.829052 
L 344.677919 -232.295169 
L 346.179029 -232.760828 
L 347.680139 -233.226051 
L 349.181248 -233.690856 
L 350.682358 -234.155263 
L 352.183468 -234.619289 
L 353.684577 -235.082952 
L 355.185687 -235.546266 
L 356.686797 -236.009248 
L 358.187906 -236.471911 
L 359.689016 -236.934269 
L 361.190126 -237.396335 
L 362.691235 -237.858121 
L 364.192345 -238.319638 
L 365.693454 -238.780898 
L 367.194564 -239.241912 
L 368.695674 -239.702688 
L 370.196783 -240.163237 
L 371.697893 -240.623567 
L 373.199003 -241.083687 
L 374.700112 -241.543606 
L 376.201222 -242.00333 
L 377.702332 -242.462867 
L 377.702332 -252.595011 
L 377.702332 -252.595011 
L 376.201222 -252.006925 
L 374.700112 -251.419026 
L 373.199003 -250.831322 
L 371.697893 -250.243819 
L 370.196783 -249.656526 
L 368.695674 -249.069452 
L 367.194564 -248.482605 
L 365.693454 -247.895995 
L 364.192345 -247.309633 
L 362.691235 -246.723527 
L 361.190126 -246.13769 
L 359.689016 -245.552133 
L 358.187906 -244.966868 
L 356.686797 -244.381907 
L 355.185687 -243.797266 
L 353.684577 -243.212957 
L 352.183468 -242.628997 
L 350.682358 -242.0454 
L 349.181248 -241.462184 
L 347.680139 -240.879366 
L 346.179029 -240.296965 
L 344.677919 -239.715002 
L 343.17681 -239.133496 
L 341.6757 -238.55247 
L 340.17459 -237.971947 
L 338.673481 -237.391951 
L 337.172371 -236.812509 
L 335.671261 -236.233648 
L 334.170152 -235.655397 
L 332.669042 -235.077787 
L 331.167932 -234.500849 
L 329.666823 -233.924618 
L 328.165713 -233.349129 
L 326.664603 -232.77442 
L 325.163494 -232.200531 
L 323.662384 -231.627504 
L 322.161274 -231.055381 
L 320.660165 -230.484209 
L 319.159055 -229.914037 
L 317.657945 -229.344913 
L 316.156836 -228.776891 
L 314.655726 -228.210026 
L 313.154616 -227.644372 
L 311.653507 -227.07999 
L 310.152397 -226.516939 
L 308.651287 -225.955283 
L 307.150178 -225.395083 
L 305.649068 -224.836406 
L 304.147958 -224.279318 
L 302.646849 -223.723884 
L 301.145739 -223.170171 
L 299.64463 -222.618246 
L 298.14352 -222.068175 
L 296.64241 -221.52002 
L 295.141301 -220.973845 
L 293.640191 -220.429709 
L 292.139081 -219.887668 
L 290.637972 -219.347775 
L 289.136862 -218.810075 
L 287.635752 -218.274612 
L 286.134643 -217.741422 
L 284.633533 -217.210534 
L 283.132423 -216.681971 
L 281.631314 -216.155748 
L 280.130204 -215.631874 
L 278.629094 -215.110348 
L 277.127985 -214.591163 
L 275.626875 -214.074303 
L 274.125765 -213.559748 
L 272.624656 -213.047467 
L 271.123546 -212.537425 
L 269.622436 -212.029579 
L 268.121327 -211.523883 
L 266.620217 -211.020285 
L 265.119107 -210.518729 
L 263.617998 -210.019156 
L 262.116888 -209.521504 
L 260.615778 -209.025708 
L 259.114669 -208.531703 
L 257.613559 -208.039424 
L 256.112449 -207.548802 
L 254.61134 -207.059773 
L 253.11023 -206.572269 
L 251.60912 -206.086226 
L 250.108011 -205.601581 
L 248.606901 -205.11827 
L 247.105791 -204.636234 
L 245.604682 -204.155413 
L 244.103572 -203.675751 
L 242.602462 -203.197194 
L 241.101353 -202.719689 
L 239.600243 -202.243185 
L 238.099134 -201.767635 
L 236.598024 -201.292992 
L 235.096914 -200.819213 
L 233.595805 -200.346256 
L 232.094695 -199.874081 
L 230.593585 -199.40265 
L 229.092476 -198.931928 
z
" style="stroke: #55a868; stroke-opacity: 0.12"/>
    </defs>
    <g clip-path="url(#pa89d201b4b)">
     <use xlink:href="#m74d7a50dad" x="0" y="365.617094" style="fill: #55a868; fill-opacity: 0.12; stroke: #55a868; stroke-opacity: 0.12"/>
    </g>
   </g>
   <g id="matplotlib.axis_3">
    <g id="xtick_9">
     <g id="line2d_17">
      <g>
       <use xlink:href="#mf5dbd6f67f" x="224.758021" y="194.790258" style="stroke: #000000; stroke-width: 0.8"/>
      </g>
     </g>
    </g>
    <g id="xtick_10">
     <g id="line2d_18">
      <g>
       <use xlink:href="#mf5dbd6f67f" x="255.718408" y="194.790258" style="stroke: #000000; stroke-width: 0.8"/>
      </g>
     </g>
    </g>
    <g id="xtick_11">
     <g id="line2d_19">
      <g>
       <use xlink:href="#mf5dbd6f67f" x="286.678795" y="194.790258" style="stroke: #000000; stroke-width: 0.8"/>
      </g>
     </g>
    </g>
    <g id="xtick_12">
     <g id="line2d_20">
      <g>
       <use xlink:href="#mf5dbd6f67f" x="317.639182" y="194.790258" style="stroke: #000000; stroke-width: 0.8"/>
      </g>
     </g>
    </g>
    <g id="xtick_13">
     <g id="line2d_21">
      <g>
       <use xlink:href="#mf5dbd6f67f" x="348.599568" y="194.790258" style="stroke: #000000; stroke-width: 0.8"/>
      </g>
     </g>
    </g>
    <g id="xtick_14">
     <g id="line2d_22">
      <g>
       <use xlink:href="#mf5dbd6f67f" x="379.559955" y="194.790258" style="stroke: #000000; stroke-width: 0.8"/>
      </g>
     </g>
    </g>
   </g>
   <g id="matplotlib.axis_4">
    <g id="ytick_9">
     <g id="line2d_23">
      <g>
       <use xlink:href="#mb73866083d" x="221.155156" y="189.44103" style="stroke: #000000; stroke-width: 0.8"/>
      </g>
     </g>
    </g>
    <g id="ytick_10">
     <g id="line2d_24">
      <g>
       <use xlink:href="#mb73866083d" x="221.155156" y="175.29146" style="stroke: #000000; stroke-width: 0.8"/>
      </g>
     </g>
    </g>
    <g id="ytick_11">
     <g id="line2d_25">
      <g>
       <use xlink:href="#mb73866083d" x="221.155156" y="161.14189" style="stroke: #000000; stroke-width: 0.8"/>
      </g>
     </g>
    </g>
    <g id="ytick_12">
     <g id="line2d_26">
      <g>
       <use xlink:href="#mb73866083d" x="221.155156" y="146.992321" style="stroke: #000000; stroke-width: 0.8"/>
      </g>
     </g>
    </g>
    <g id="ytick_13">
     <g id="line2d_27">
      <g>
       <use xlink:href="#mb73866083d" x="221.155156" y="132.842751" style="stroke: #000000; stroke-width: 0.8"/>
      </g>
     </g>
    </g>
    <g id="ytick_14">
     <g id="line2d_28">
      <g>
       <use xlink:href="#mb73866083d" x="221.155156" y="118.693181" style="stroke: #000000; stroke-width: 0.8"/>
      </g>
     </g>
    </g>
    <g id="ytick_15">
     <g id="line2d_29">
      <g>
       <use xlink:href="#mb73866083d" x="221.155156" y="104.543611" style="stroke: #000000; stroke-width: 0.8"/>
      </g>
     </g>
    </g>
    <g id="ytick_16">
     <g id="line2d_30">
      <g>
       <use xlink:href="#mb73866083d" x="221.155156" y="90.394041" style="stroke: #000000; stroke-width: 0.8"/>
      </g>
     </g>
    </g>
   </g>
   <g id="line2d_31">
    <path d="M 229.092476 169.945496 
L 230.593585 169.421685 
L 232.094695 168.897873 
L 233.595805 168.374062 
L 235.096914 167.85025 
L 236.598024 167.326439 
L 238.099134 166.802627 
L 239.600243 166.278816 
L 241.101353 165.755004 
L 242.602462 165.231193 
L 244.103572 164.707381 
L 245.604682 164.18357 
L 247.105791 163.659758 
L 248.606901 163.135947 
L 250.108011 162.612135 
L 251.60912 162.088323 
L 253.11023 161.564512 
L 254.61134 161.0407 
L 256.112449 160.516889 
L 257.613559 159.993077 
L 259.114669 159.469266 
L 260.615778 158.945454 
L 262.116888 158.421643 
L 263.617998 157.897831 
L 265.119107 157.37402 
L 266.620217 156.850208 
L 268.121327 156.326397 
L 269.622436 155.802585 
L 271.123546 155.278774 
L 272.624656 154.754962 
L 274.125765 154.23115 
L 275.626875 153.707339 
L 277.127985 153.183527 
L 278.629094 152.659716 
L 280.130204 152.135904 
L 281.631314 151.612093 
L 283.132423 151.088281 
L 284.633533 150.56447 
L 286.134643 150.040658 
L 287.635752 149.516847 
L 289.136862 148.993035 
L 290.637972 148.469224 
L 292.139081 147.945412 
L 293.640191 147.421601 
L 295.141301 146.897789 
L 296.64241 146.373977 
L 298.14352 145.850166 
L 299.64463 145.326354 
L 301.145739 144.802543 
L 302.646849 144.278731 
L 304.147958 143.75492 
L 305.649068 143.231108 
L 307.150178 142.707297 
L 308.651287 142.183485 
L 310.152397 141.659674 
L 311.653507 141.135862 
L 313.154616 140.612051 
L 314.655726 140.088239 
L 316.156836 139.564428 
L 317.657945 139.040616 
L 319.159055 138.516804 
L 320.660165 137.992993 
L 322.161274 137.469181 
L 323.662384 136.94537 
L 325.163494 136.421558 
L 326.664603 135.897747 
L 328.165713 135.373935 
L 329.666823 134.850124 
L 331.167932 134.326312 
L 332.669042 133.802501 
L 334.170152 133.278689 
L 335.671261 132.754878 
L 337.172371 132.231066 
L 338.673481 131.707255 
L 340.17459 131.183443 
L 341.6757 130.659631 
L 343.17681 130.13582 
L 344.677919 129.612008 
L 346.179029 129.088197 
L 347.680139 128.564385 
L 349.181248 128.040574 
L 350.682358 127.516762 
L 352.183468 126.992951 
L 353.684577 126.469139 
L 355.185687 125.945328 
L 356.686797 125.421516 
L 358.187906 124.897705 
L 359.689016 124.373893 
L 361.190126 123.850082 
L 362.691235 123.32627 
L 364.192345 122.802458 
L 365.693454 122.278647 
L 367.194564 121.754835 
L 368.695674 121.231024 
L 370.196783 120.707212 
L 371.697893 120.183401 
L 373.199003 119.659589 
L 374.700112 119.135778 
L 376.201222 118.611966 
L 377.702332 118.088155 
" clip-path="url(#pa89d201b4b)" style="fill: none; stroke: #55a868; stroke-width: 1.2; stroke-linecap: square"/>
   </g>
   <g id="patch_8">
    <path d="M 221.155156 194.790258 
L 221.155156 77.10725 
" style="fill: none; stroke: #000000; stroke-width: 0.8; stroke-linejoin: miter; stroke-linecap: square"/>
   </g>
   <g id="patch_9">
    <path d="M 385.624609 194.790258 
L 385.624609 77.10725 
" style="fill: none; stroke: #000000; stroke-width: 0.8; stroke-linejoin: miter; stroke-linecap: square"/>
   </g>
   <g id="patch_10">
    <path d="M 221.155156 194.790258 
L 385.624609 194.790258 
" style="fill: none; stroke: #000000; stroke-width: 0.8; stroke-linejoin: miter; stroke-linecap: square"/>
   </g>
   <g id="patch_11">
    <path d="M 221.155156 77.10725 
L 385.624609 77.10725 
" style="fill: none; stroke: #000000; stroke-width: 0.8; stroke-linejoin: miter; stroke-linecap: square"/>
   </g>
   <g id="PathCollection_2">
    <defs>
     <path id="ma75ff6e5fe" d="M 0 2.236068 
C 0.593012 2.236068 1.161816 2.000462 1.581139 1.581139 
C 2.000462 1.161816 2.236068 0.593012 2.236068 0 
C 2.236068 -0.593012 2.000462 -1.161816 1.581139 -1.581139 
C 1.161816 -2.000462 0.593012 -2.236068 0 -2.236068 
C -0.593012 -2.236068 -1.161816 -2.000462 -1.581139 -1.581139 
C -2.000462 -1.161816 -2.236068 -0.593012 -2.236068 0 
C -2.236068 0.593012 -2.000462 1.161816 -1.581139 1.581139 
C -1.161816 2.000462 -0.593012 2.236068 0 2.236068 
z
" style="stroke: #ffffff; stroke-opacity: 0.6; stroke-width: 0.3"/>
    </defs>
    <g clip-path="url(#pa89d201b4b)">
     <use xlink:href="#ma75ff6e5fe" x="285.0617" y="82.456478" style="fill: #55a868; fill-opacity: 0.6; stroke: #ffffff; stroke-opacity: 0.6; stroke-width: 0.3"/>
     <use xlink:href="#ma75ff6e5fe" x="252.789123" y="189.44103" style="fill: #55a868; fill-opacity: 0.6; stroke: #ffffff; stroke-opacity: 0.6; stroke-width: 0.3"/>
     <use xlink:href="#ma75ff6e5fe" x="257.204411" y="189.44103" style="fill: #55a868; fill-opacity: 0.6; stroke: #ffffff; stroke-opacity: 0.6; stroke-width: 0.3"/>
     <use xlink:href="#ma75ff6e5fe" x="307.612128" y="165.322445" style="fill: #55a868; fill-opacity: 0.6; stroke: #ffffff; stroke-opacity: 0.6; stroke-width: 0.3"/>
     <use xlink:href="#ma75ff6e5fe" x="228.63104" y="131.958403" style="fill: #55a868; fill-opacity: 0.6; stroke: #ffffff; stroke-opacity: 0.6; stroke-width: 0.3"/>
     <use xlink:href="#ma75ff6e5fe" x="259.648555" y="189.44103" style="fill: #55a868; fill-opacity: 0.6; stroke: #ffffff; stroke-opacity: 0.6; stroke-width: 0.3"/>
     <use xlink:href="#ma75ff6e5fe" x="378.148725" y="115.155788" style="fill: #55a868; fill-opacity: 0.6; stroke: #ffffff; stroke-opacity: 0.6; stroke-width: 0.3"/>
    </g>
   </g>
   <g id="text_11">
    <!-- High Physical Load -->
    <g transform="translate(266.067305 73.10725) scale(0.07 -0.07)">
     <defs>
      <path id="DejaVuSans-Bold-2b" d="M 588 4666 
L 1791 4666 
L 1791 2888 
L 3566 2888 
L 3566 4666 
L 4769 4666 
L 4769 0 
L 3566 0 
L 3566 1978 
L 1791 1978 
L 1791 0 
L 588 0 
L 588 4666 
z
" transform="scale(0.015625)"/>
      <path id="DejaVuSans-Bold-4a" d="M 2919 594 
Q 2688 288 2409 144 
Q 2131 0 1766 0 
Q 1125 0 706 504 
Q 288 1009 288 1791 
Q 288 2575 706 3076 
Q 1125 3578 1766 3578 
Q 2131 3578 2409 3434 
Q 2688 3291 2919 2981 
L 2919 3500 
L 4044 3500 
L 4044 353 
Q 4044 -491 3511 -936 
Q 2978 -1381 1966 -1381 
Q 1638 -1381 1331 -1331 
Q 1025 -1281 716 -1178 
L 716 -306 
Q 1009 -475 1290 -558 
Q 1572 -641 1856 -641 
Q 2406 -641 2662 -400 
Q 2919 -159 2919 353 
L 2919 594 
z
M 2181 2772 
Q 1834 2772 1640 2515 
Q 1447 2259 1447 1791 
Q 1447 1309 1634 1061 
Q 1822 813 2181 813 
Q 2531 813 2725 1069 
Q 2919 1325 2919 1791 
Q 2919 2259 2725 2515 
Q 2531 2772 2181 2772 
z
" transform="scale(0.015625)"/>
     </defs>
     <use xlink:href="#DejaVuSans-Bold-2b"/>
     <use xlink:href="#DejaVuSans-Bold-4c" transform="translate(83.6875 0)"/>
     <use xlink:href="#DejaVuSans-Bold-4a" transform="translate(117.96875 0)"/>
     <use xlink:href="#DejaVuSans-Bold-4b" transform="translate(189.546875 0)"/>
     <use xlink:href="#DejaVuSans-Bold-3" transform="translate(260.734375 0)"/>
     <use xlink:href="#DejaVuSans-Bold-33" transform="translate(295.546875 0)"/>
     <use xlink:href="#DejaVuSans-Bold-4b" transform="translate(368.84375 0)"/>
     <use xlink:href="#DejaVuSans-Bold-5c" transform="translate(440.03125 0)"/>
     <use xlink:href="#DejaVuSans-Bold-56" transform="translate(505.21875 0)"/>
     <use xlink:href="#DejaVuSans-Bold-4c" transform="translate(564.734375 0)"/>
     <use xlink:href="#DejaVuSans-Bold-46" transform="translate(599.015625 0)"/>
     <use xlink:href="#DejaVuSans-Bold-44" transform="translate(658.296875 0)"/>
     <use xlink:href="#DejaVuSans-Bold-4f" transform="translate(725.78125 0)"/>
     <use xlink:href="#DejaVuSans-Bold-3" transform="translate(760.0625 0)"/>
     <use xlink:href="#DejaVuSans-Bold-2f" transform="translate(794.875 0)"/>
     <use xlink:href="#DejaVuSans-Bold-52" transform="translate(858.59375 0)"/>
     <use xlink:href="#DejaVuSans-Bold-44" transform="translate(927.296875 0)"/>
     <use xlink:href="#DejaVuSans-Bold-47" transform="translate(994.78125 0)"/>
    </g>
   </g>
   <g id="patch_12">
    <path d="M 222.955156 192.990258 
L 258.445156 192.990258 
L 258.445156 174.949945 
L 222.955156 174.949945 
z
" style="fill: #ffffff; stroke: #000000; stroke-linejoin: miter"/>
   </g>
   <g id="text_12">
    <!-- β=0.015 -->
    <g transform="translate(224.755156 181.947094) scale(0.06 -0.06)">
     <defs>
      <path id="DejaVuSans-346" d="M 1178 216 
L 1178 -1331 
L 600 -1331 
L 600 3478 
Q 600 4903 1931 4903 
Q 3288 4903 3288 3700 
Q 3288 2844 2750 2531 
Q 3625 2250 3625 1416 
Q 3625 -66 2119 -66 
Q 1456 -66 1178 216 
z
M 1178 966 
Q 1525 425 2141 425 
Q 3041 425 3041 1406 
Q 3041 2288 1591 2219 
L 1591 2750 
Q 2725 2750 2725 3750 
Q 2725 4434 1994 4434 
Q 1178 4434 1178 3459 
L 1178 966 
z
" transform="scale(0.015625)"/>
      <path id="DejaVuSans-20" d="M 678 2906 
L 4684 2906 
L 4684 2381 
L 678 2381 
L 678 2906 
z
M 678 1631 
L 4684 1631 
L 4684 1100 
L 678 1100 
L 678 1631 
z
" transform="scale(0.015625)"/>
     </defs>
     <use xlink:href="#DejaVuSans-346"/>
     <use xlink:href="#DejaVuSans-20" transform="translate(63.8125 0)"/>
     <use xlink:href="#DejaVuSans-13" transform="translate(147.609375 0)"/>
     <use xlink:href="#DejaVuSans-11" transform="translate(211.234375 0)"/>
     <use xlink:href="#DejaVuSans-13" transform="translate(243.015625 0)"/>
     <use xlink:href="#DejaVuSans-14" transform="translate(306.640625 0)"/>
     <use xlink:href="#DejaVuSans-18" transform="translate(370.265625 0)"/>
    </g>
    <!-- R²=0.16ns -->
    <g transform="translate(224.755156 189.148266) scale(0.06 -0.06)">
     <defs>
      <path id="DejaVuSans-35" d="M 2841 2188 
Q 3044 2119 3236 1894 
Q 3428 1669 3622 1275 
L 4263 0 
L 3584 0 
L 2988 1197 
Q 2756 1666 2539 1819 
Q 2322 1972 1947 1972 
L 1259 1972 
L 1259 0 
L 628 0 
L 628 4666 
L 2053 4666 
Q 2853 4666 3247 4331 
Q 3641 3997 3641 3322 
Q 3641 2881 3436 2590 
Q 3231 2300 2841 2188 
z
M 1259 4147 
L 1259 2491 
L 2053 2491 
Q 2509 2491 2742 2702 
Q 2975 2913 2975 3322 
Q 2975 3731 2742 3939 
Q 2509 4147 2053 4147 
L 1259 4147 
z
" transform="scale(0.015625)"/>
      <path id="DejaVuSans-74" d="M 838 2444 
L 2163 2444 
L 2163 2088 
L 294 2088 
L 294 2431 
Q 400 2528 597 2703 
Q 1672 3656 1672 3950 
Q 1672 4156 1509 4282 
Q 1347 4409 1081 4409 
Q 919 4409 728 4354 
Q 538 4300 313 4191 
L 313 4575 
Q 553 4663 761 4706 
Q 969 4750 1147 4750 
Q 1600 4750 1872 4544 
Q 2144 4338 2144 4000 
Q 2144 3566 1109 2678 
Q 934 2528 838 2444 
z
" transform="scale(0.015625)"/>
     </defs>
     <use xlink:href="#DejaVuSans-35"/>
     <use xlink:href="#DejaVuSans-74" transform="translate(69.484375 0)"/>
     <use xlink:href="#DejaVuSans-20" transform="translate(109.578125 0)"/>
     <use xlink:href="#DejaVuSans-13" transform="translate(193.375 0)"/>
     <use xlink:href="#DejaVuSans-11" transform="translate(257 0)"/>
     <use xlink:href="#DejaVuSans-14" transform="translate(288.78125 0)"/>
     <use xlink:href="#DejaVuSans-19" transform="translate(352.40625 0)"/>
     <use xlink:href="#DejaVuSans-51" transform="translate(416.03125 0)"/>
     <use xlink:href="#DejaVuSans-56" transform="translate(479.40625 0)"/>
    </g>
   </g>
  </g>
  <g id="axes_3">
   <g id="patch_13">
    <path d="M 44.545703 324.613266 
L 209.015156 324.613266 
L 209.015156 206.930258 
L 44.545703 206.930258 
z
" style="fill: #ffffff"/>
   </g>
   <g id="matplotlib.axis_5">
    <g id="xtick_15">
     <g id="line2d_32">
      <g>
       <use xlink:href="#mf5dbd6f67f" x="50.031259" y="324.613266" style="stroke: #000000; stroke-width: 0.8"/>
      </g>
     </g>
     <g id="text_13">
      <!-- 5.0 -->
      <g transform="translate(44.465165 336.931625) scale(0.07 -0.07)">
       <use xlink:href="#DejaVuSans-18"/>
       <use xlink:href="#DejaVuSans-11" transform="translate(63.625 0)"/>
       <use xlink:href="#DejaVuSans-13" transform="translate(95.40625 0)"/>
      </g>
     </g>
    </g>
    <g id="xtick_16">
     <g id="line2d_33">
      <g>
       <use xlink:href="#mf5dbd6f67f" x="71.454335" y="324.613266" style="stroke: #000000; stroke-width: 0.8"/>
      </g>
     </g>
     <g id="text_14">
      <!-- 7.5 -->
      <g transform="translate(65.888242 336.931625) scale(0.07 -0.07)">
       <use xlink:href="#DejaVuSans-1a"/>
       <use xlink:href="#DejaVuSans-11" transform="translate(63.625 0)"/>
       <use xlink:href="#DejaVuSans-18" transform="translate(95.40625 0)"/>
      </g>
     </g>
    </g>
    <g id="xtick_17">
     <g id="line2d_34">
      <g>
       <use xlink:href="#mf5dbd6f67f" x="92.877412" y="324.613266" style="stroke: #000000; stroke-width: 0.8"/>
      </g>
     </g>
     <g id="text_15">
      <!-- 10.0 -->
      <g transform="translate(85.084443 336.931625) scale(0.07 -0.07)">
       <use xlink:href="#DejaVuSans-14"/>
       <use xlink:href="#DejaVuSans-13" transform="translate(63.625 0)"/>
       <use xlink:href="#DejaVuSans-11" transform="translate(127.25 0)"/>
       <use xlink:href="#DejaVuSans-13" transform="translate(159.03125 0)"/>
      </g>
     </g>
    </g>
    <g id="xtick_18">
     <g id="line2d_35">
      <g>
       <use xlink:href="#mf5dbd6f67f" x="114.300489" y="324.613266" style="stroke: #000000; stroke-width: 0.8"/>
      </g>
     </g>
     <g id="text_16">
      <!-- 12.5 -->
      <g transform="translate(106.50752 336.931625) scale(0.07 -0.07)">
       <use xlink:href="#DejaVuSans-14"/>
       <use xlink:href="#DejaVuSans-15" transform="translate(63.625 0)"/>
       <use xlink:href="#DejaVuSans-11" transform="translate(127.25 0)"/>
       <use xlink:href="#DejaVuSans-18" transform="translate(159.03125 0)"/>
      </g>
     </g>
    </g>
    <g id="xtick_19">
     <g id="line2d_36">
      <g>
       <use xlink:href="#mf5dbd6f67f" x="135.723566" y="324.613266" style="stroke: #000000; stroke-width: 0.8"/>
      </g>
     </g>
     <g id="text_17">
      <!-- 15.0 -->
      <g transform="translate(127.930597 336.931625) scale(0.07 -0.07)">
       <use xlink:href="#DejaVuSans-14"/>
       <use xlink:href="#DejaVuSans-18" transform="translate(63.625 0)"/>
       <use xlink:href="#DejaVuSans-11" transform="translate(127.25 0)"/>
       <use xlink:href="#DejaVuSans-13" transform="translate(159.03125 0)"/>
      </g>
     </g>
    </g>
    <g id="xtick_20">
     <g id="line2d_37">
      <g>
       <use xlink:href="#mf5dbd6f67f" x="157.146642" y="324.613266" style="stroke: #000000; stroke-width: 0.8"/>
      </g>
     </g>
     <g id="text_18">
      <!-- 17.5 -->
      <g transform="translate(149.353674 336.931625) scale(0.07 -0.07)">
       <use xlink:href="#DejaVuSans-14"/>
       <use xlink:href="#DejaVuSans-1a" transform="translate(63.625 0)"/>
       <use xlink:href="#DejaVuSans-11" transform="translate(127.25 0)"/>
       <use xlink:href="#DejaVuSans-18" transform="translate(159.03125 0)"/>
      </g>
     </g>
    </g>
    <g id="xtick_21">
     <g id="line2d_38">
      <g>
       <use xlink:href="#mf5dbd6f67f" x="178.569719" y="324.613266" style="stroke: #000000; stroke-width: 0.8"/>
      </g>
     </g>
     <g id="text_19">
      <!-- 20.0 -->
      <g transform="translate(170.77675 336.931625) scale(0.07 -0.07)">
       <use xlink:href="#DejaVuSans-15"/>
       <use xlink:href="#DejaVuSans-13" transform="translate(63.625 0)"/>
       <use xlink:href="#DejaVuSans-11" transform="translate(127.25 0)"/>
       <use xlink:href="#DejaVuSans-13" transform="translate(159.03125 0)"/>
      </g>
     </g>
    </g>
    <g id="xtick_22">
     <g id="line2d_39">
      <g>
       <use xlink:href="#mf5dbd6f67f" x="199.992796" y="324.613266" style="stroke: #000000; stroke-width: 0.8"/>
      </g>
     </g>
     <g id="text_20">
      <!-- 22.5 -->
      <g transform="translate(192.199827 336.931625) scale(0.07 -0.07)">
       <use xlink:href="#DejaVuSans-15"/>
       <use xlink:href="#DejaVuSans-15" transform="translate(63.625 0)"/>
       <use xlink:href="#DejaVuSans-11" transform="translate(127.25 0)"/>
       <use xlink:href="#DejaVuSans-18" transform="translate(159.03125 0)"/>
      </g>
     </g>
    </g>
   </g>
   <g id="matplotlib.axis_6">
    <g id="ytick_17">
     <g id="line2d_40">
      <g>
       <use xlink:href="#mb73866083d" x="44.545703" y="318.149616" style="stroke: #000000; stroke-width: 0.8"/>
      </g>
     </g>
     <g id="text_21">
      <!-- 0.5 -->
      <g transform="translate(26.413516 320.808795) scale(0.07 -0.07)">
       <use xlink:href="#DejaVuSans-13"/>
       <use xlink:href="#DejaVuSans-11" transform="translate(63.625 0)"/>
       <use xlink:href="#DejaVuSans-18" transform="translate(95.40625 0)"/>
      </g>
     </g>
    </g>
    <g id="ytick_18">
     <g id="line2d_41">
      <g>
       <use xlink:href="#mb73866083d" x="44.545703" y="290.289055" style="stroke: #000000; stroke-width: 0.8"/>
      </g>
     </g>
     <g id="text_22">
      <!-- 1.0 -->
      <g transform="translate(26.413516 292.948235) scale(0.07 -0.07)">
       <use xlink:href="#DejaVuSans-14"/>
       <use xlink:href="#DejaVuSans-11" transform="translate(63.625 0)"/>
       <use xlink:href="#DejaVuSans-13" transform="translate(95.40625 0)"/>
      </g>
     </g>
    </g>
    <g id="ytick_19">
     <g id="line2d_42">
      <g>
       <use xlink:href="#mb73866083d" x="44.545703" y="262.428494" style="stroke: #000000; stroke-width: 0.8"/>
      </g>
     </g>
     <g id="text_23">
      <!-- 1.5 -->
      <g transform="translate(26.413516 265.087674) scale(0.07 -0.07)">
       <use xlink:href="#DejaVuSans-14"/>
       <use xlink:href="#DejaVuSans-11" transform="translate(63.625 0)"/>
       <use xlink:href="#DejaVuSans-18" transform="translate(95.40625 0)"/>
      </g>
     </g>
    </g>
    <g id="ytick_20">
     <g id="line2d_43">
      <g>
       <use xlink:href="#mb73866083d" x="44.545703" y="234.567934" style="stroke: #000000; stroke-width: 0.8"/>
      </g>
     </g>
     <g id="text_24">
      <!-- 2.0 -->
      <g transform="translate(26.413516 237.227114) scale(0.07 -0.07)">
       <use xlink:href="#DejaVuSans-15"/>
       <use xlink:href="#DejaVuSans-11" transform="translate(63.625 0)"/>
       <use xlink:href="#DejaVuSans-13" transform="translate(95.40625 0)"/>
      </g>
     </g>
    </g>
   </g>
   <g id="patch_14">
    <path d="M 44.545703 324.613266 
L 44.545703 206.930258 
" style="fill: none; stroke: #000000; stroke-width: 0.8; stroke-linejoin: miter; stroke-linecap: square"/>
   </g>
   <g id="patch_15">
    <path d="M 209.015156 324.613266 
L 209.015156 206.930258 
" style="fill: none; stroke: #000000; stroke-width: 0.8; stroke-linejoin: miter; stroke-linecap: square"/>
   </g>
   <g id="patch_16">
    <path d="M 44.545703 324.613266 
L 209.015156 324.613266 
" style="fill: none; stroke: #000000; stroke-width: 0.8; stroke-linejoin: miter; stroke-linecap: square"/>
   </g>
   <g id="patch_17">
    <path d="M 44.545703 206.930258 
L 209.015156 206.930258 
" style="fill: none; stroke: #000000; stroke-width: 0.8; stroke-linejoin: miter; stroke-linecap: square"/>
   </g>
   <g id="text_25">
    <!-- Insufficient -->
    <g style="fill: #808080" transform="translate(107.463711 263.389437) scale(0.07 -0.07)">
     <defs>
      <path id="DejaVuSans-2c" d="M 628 4666 
L 1259 4666 
L 1259 0 
L 628 0 
L 628 4666 
z
" transform="scale(0.015625)"/>
      <path id="DejaVuSans-13b1" d="M 2375 4863 
L 2375 4384 
L 1825 4384 
Q 1516 4384 1394 4259 
Q 1275 4134 1275 3809 
L 1275 3500 
L 2853 3500 
L 2853 3744 
Q 2853 4328 3125 4594 
Q 3213 4681 3334 4741 
Q 3578 4863 3988 4863 
L 4531 4863 
L 4531 4384 
L 3981 4384 
Q 3672 4384 3551 4259 
Q 3431 4134 3431 3809 
L 3431 3500 
L 5588 3500 
L 5588 0 
L 5009 0 
L 5009 3053 
L 3431 3053 
L 3431 0 
L 2853 0 
L 2853 3053 
L 1275 3053 
L 1275 0 
L 697 0 
L 697 3053 
L 147 3053 
L 147 3500 
L 697 3500 
L 697 3744 
Q 697 4328 969 4595 
Q 1241 4863 1831 4863 
L 2375 4863 
z
M 5009 4856 
L 5588 4856 
L 5588 4128 
L 5009 4128 
L 5009 4856 
z
" transform="scale(0.015625)"/>
      <path id="DejaVuSans-57" d="M 1172 4494 
L 1172 3500 
L 2356 3500 
L 2356 3053 
L 1172 3053 
L 1172 1153 
Q 1172 725 1289 603 
Q 1406 481 1766 481 
L 2356 481 
L 2356 0 
L 1766 0 
Q 1100 0 847 248 
Q 594 497 594 1153 
L 594 3053 
L 172 3053 
L 172 3500 
L 594 3500 
L 594 4494 
L 1172 4494 
z
" transform="scale(0.015625)"/>
     </defs>
     <use xlink:href="#DejaVuSans-2c"/>
     <use xlink:href="#DejaVuSans-51" transform="translate(29.5 0)"/>
     <use xlink:href="#DejaVuSans-56" transform="translate(92.875 0)"/>
     <use xlink:href="#DejaVuSans-58" transform="translate(144.96875 0)"/>
     <use xlink:href="#DejaVuSans-13b1" transform="translate(208.34375 0)"/>
     <use xlink:href="#DejaVuSans-46" transform="translate(305.03125 0)"/>
     <use xlink:href="#DejaVuSans-4c" transform="translate(360.015625 0)"/>
     <use xlink:href="#DejaVuSans-48" transform="translate(387.796875 0)"/>
     <use xlink:href="#DejaVuSans-51" transform="translate(449.328125 0)"/>
     <use xlink:href="#DejaVuSans-57" transform="translate(512.703125 0)"/>
    </g>
    <!-- data -->
    <g style="fill: #808080" transform="translate(118.89668 271.791352) scale(0.07 -0.07)">
     <defs>
      <path id="DejaVuSans-47" d="M 2906 2969 
L 2906 4863 
L 3481 4863 
L 3481 0 
L 2906 0 
L 2906 525 
Q 2725 213 2448 61 
Q 2172 -91 1784 -91 
Q 1150 -91 751 415 
Q 353 922 353 1747 
Q 353 2572 751 3078 
Q 1150 3584 1784 3584 
Q 2172 3584 2448 3432 
Q 2725 3281 2906 2969 
z
M 947 1747 
Q 947 1113 1208 752 
Q 1469 391 1925 391 
Q 2381 391 2643 752 
Q 2906 1113 2906 1747 
Q 2906 2381 2643 2742 
Q 2381 3103 1925 3103 
Q 1469 3103 1208 2742 
Q 947 2381 947 1747 
z
" transform="scale(0.015625)"/>
     </defs>
     <use xlink:href="#DejaVuSans-47"/>
     <use xlink:href="#DejaVuSans-44" transform="translate(63.484375 0)"/>
     <use xlink:href="#DejaVuSans-57" transform="translate(124.765625 0)"/>
     <use xlink:href="#DejaVuSans-44" transform="translate(163.96875 0)"/>
    </g>
   </g>
  </g>
  <g id="axes_4">
   <g id="patch_18">
    <path d="M 221.155156 324.613266 
L 385.624609 324.613266 
L 385.624609 206.930258 
L 221.155156 206.930258 
z
" style="fill: #ffffff"/>
   </g>
   <g id="FillBetweenPolyCollection_2">
    <defs>
     <path id="m96e5f74d87" d="M 277.390679 -151.87302 
L 277.390679 -122.278207 
L 277.897303 -121.769972 
L 278.403928 -121.260195 
L 278.910552 -120.748821 
L 279.417177 -120.235798 
L 279.923801 -119.721066 
L 280.430426 -119.204569 
L 280.93705 -118.686245 
L 281.443675 -118.166031 
L 281.950299 -117.643862 
L 282.456924 -117.119672 
L 282.963548 -116.593391 
L 283.470173 -116.064949 
L 283.976797 -115.53427 
L 284.483422 -115.00128 
L 284.990046 -114.465902 
L 285.496671 -113.928054 
L 286.003295 -113.387655 
L 286.50992 -112.844622 
L 287.016545 -112.298868 
L 287.523169 -111.750305 
L 288.029794 -111.198844 
L 288.536418 -110.644393 
L 289.043043 -110.08686 
L 289.549667 -109.526152 
L 290.056292 -108.962171 
L 290.562916 -108.394824 
L 291.069541 -107.824013 
L 291.576165 -107.24964 
L 292.08279 -106.67161 
L 292.589414 -106.089824 
L 293.096039 -105.504186 
L 293.602663 -104.914601 
L 294.109288 -104.320976 
L 294.615912 -103.723216 
L 295.122537 -103.121233 
L 295.629161 -102.514938 
L 296.135786 -101.904247 
L 296.64241 -101.289079 
L 297.149035 -100.669358 
L 297.655659 -100.04501 
L 298.162284 -99.415968 
L 298.668908 -98.782169 
L 299.175533 -98.143558 
L 299.682157 -97.500083 
L 300.188782 -96.851701 
L 300.695406 -96.198375 
L 301.202031 -95.540074 
L 301.708655 -94.876777 
L 302.21528 -94.208468 
L 302.721904 -93.535138 
L 303.228529 -92.856789 
L 303.735153 -92.173428 
L 304.241778 -91.485069 
L 304.748402 -90.791737 
L 305.255027 -90.09346 
L 305.761651 -89.390276 
L 306.268276 -88.682229 
L 306.7749 -87.969369 
L 307.281525 -87.251752 
L 307.788149 -86.529441 
L 308.294774 -85.802504 
L 308.801398 -85.071013 
L 309.308023 -84.335045 
L 309.814647 -83.594681 
L 310.321272 -82.850006 
L 310.827896 -82.101107 
L 311.334521 -81.348074 
L 311.841145 -80.591 
L 312.34777 -79.829979 
L 312.854395 -79.065106 
L 313.361019 -78.296478 
L 313.867644 -77.524192 
L 314.374268 -76.748345 
L 314.880893 -75.969033 
L 315.387517 -75.186355 
L 315.894142 -74.400405 
L 316.400766 -73.611279 
L 316.907391 -72.819071 
L 317.414015 -72.023873 
L 317.92064 -71.225777 
L 318.427264 -70.424873 
L 318.933889 -69.621248 
L 319.440513 -68.814987 
L 319.947138 -68.006176 
L 320.453762 -67.194896 
L 320.960387 -66.381227 
L 321.467011 -65.565247 
L 321.973636 -64.747031 
L 322.48026 -63.926654 
L 322.986885 -63.104185 
L 323.493509 -62.279695 
L 324.000134 -61.45325 
L 324.506758 -60.624915 
L 325.013383 -59.794754 
L 325.520007 -58.962826 
L 326.026632 -58.129192 
L 326.533256 -57.293906 
L 327.039881 -56.457025 
L 327.546505 -55.618601 
L 327.546505 -85.213414 
L 327.546505 -85.213414 
L 327.039881 -85.721649 
L 326.533256 -86.231426 
L 326.026632 -86.7428 
L 325.520007 -87.255824 
L 325.013383 -87.770555 
L 324.506758 -88.287052 
L 324.000134 -88.805376 
L 323.493509 -89.32559 
L 322.986885 -89.847759 
L 322.48026 -90.371949 
L 321.973636 -90.89823 
L 321.467011 -91.426672 
L 320.960387 -91.957351 
L 320.453762 -92.490341 
L 319.947138 -93.025719 
L 319.440513 -93.563567 
L 318.933889 -94.103966 
L 318.427264 -94.646999 
L 317.92064 -95.192753 
L 317.414015 -95.741316 
L 316.907391 -96.292777 
L 316.400766 -96.847228 
L 315.894142 -97.404761 
L 315.387517 -97.965469 
L 314.880893 -98.52945 
L 314.374268 -99.096797 
L 313.867644 -99.667608 
L 313.361019 -100.241981 
L 312.854395 -100.820011 
L 312.34777 -101.401797 
L 311.841145 -101.987435 
L 311.334521 -102.57702 
L 310.827896 -103.170646 
L 310.321272 -103.768405 
L 309.814647 -104.370388 
L 309.308023 -104.976683 
L 308.801398 -105.587374 
L 308.294774 -106.202542 
L 307.788149 -106.822263 
L 307.281525 -107.446611 
L 306.7749 -108.075654 
L 306.268276 -108.709452 
L 305.761651 -109.348063 
L 305.255027 -109.991538 
L 304.748402 -110.63992 
L 304.241778 -111.293246 
L 303.735153 -111.951547 
L 303.228529 -112.614844 
L 302.721904 -113.283153 
L 302.21528 -113.956483 
L 301.708655 -114.634832 
L 301.202031 -115.318193 
L 300.695406 -116.006552 
L 300.188782 -116.699884 
L 299.682157 -117.398161 
L 299.175533 -118.101345 
L 298.668908 -118.809392 
L 298.162284 -119.522252 
L 297.655659 -120.239869 
L 297.149035 -120.96218 
L 296.64241 -121.689117 
L 296.135786 -122.420608 
L 295.629161 -123.156576 
L 295.122537 -123.89694 
L 294.615912 -124.641615 
L 294.109288 -125.390514 
L 293.602663 -126.143547 
L 293.096039 -126.900621 
L 292.589414 -127.661642 
L 292.08279 -128.426515 
L 291.576165 -129.195143 
L 291.069541 -129.967429 
L 290.562916 -130.743276 
L 290.056292 -131.522588 
L 289.549667 -132.305266 
L 289.043043 -133.091216 
L 288.536418 -133.880342 
L 288.029794 -134.67255 
L 287.523169 -135.467748 
L 287.016545 -136.265844 
L 286.50992 -137.066748 
L 286.003295 -137.870373 
L 285.496671 -138.676634 
L 284.990046 -139.485445 
L 284.483422 -140.296725 
L 283.976797 -141.110394 
L 283.470173 -141.926374 
L 282.963548 -142.74459 
L 282.456924 -143.564968 
L 281.950299 -144.387436 
L 281.443675 -145.211926 
L 280.93705 -146.038371 
L 280.430426 -146.866706 
L 279.923801 -147.696867 
L 279.417177 -148.528795 
L 278.910552 -149.362429 
L 278.403928 -150.197715 
L 277.897303 -151.034596 
L 277.390679 -151.87302 
z
" style="stroke: #55a868; stroke-opacity: 0.12"/>
    </defs>
    <g clip-path="url(#p8058c6fe61)">
     <use xlink:href="#m96e5f74d87" x="0" y="365.617094" style="fill: #55a868; fill-opacity: 0.12; stroke: #55a868; stroke-opacity: 0.12"/>
    </g>
   </g>
   <g id="matplotlib.axis_7">
    <g id="xtick_23">
     <g id="line2d_44">
      <g>
       <use xlink:href="#mf5dbd6f67f" x="224.758021" y="324.613266" style="stroke: #000000; stroke-width: 0.8"/>
      </g>
     </g>
     <g id="text_26">
      <!-- 5 -->
      <g transform="translate(222.849271 336.171859) scale(0.06 -0.06)">
       <use xlink:href="#DejaVuSans-18"/>
      </g>
     </g>
    </g>
    <g id="xtick_24">
     <g id="line2d_45">
      <g>
       <use xlink:href="#mf5dbd6f67f" x="255.718408" y="324.613266" style="stroke: #000000; stroke-width: 0.8"/>
      </g>
     </g>
     <g id="text_27">
      <!-- 10 -->
      <g transform="translate(251.900908 336.171859) scale(0.06 -0.06)">
       <use xlink:href="#DejaVuSans-14"/>
       <use xlink:href="#DejaVuSans-13" transform="translate(63.625 0)"/>
      </g>
     </g>
    </g>
    <g id="xtick_25">
     <g id="line2d_46">
      <g>
       <use xlink:href="#mf5dbd6f67f" x="286.678795" y="324.613266" style="stroke: #000000; stroke-width: 0.8"/>
      </g>
     </g>
     <g id="text_28">
      <!-- 15 -->
      <g transform="translate(282.861295 336.171859) scale(0.06 -0.06)">
       <use xlink:href="#DejaVuSans-14"/>
       <use xlink:href="#DejaVuSans-18" transform="translate(63.625 0)"/>
      </g>
     </g>
    </g>
    <g id="xtick_26">
     <g id="line2d_47">
      <g>
       <use xlink:href="#mf5dbd6f67f" x="317.639182" y="324.613266" style="stroke: #000000; stroke-width: 0.8"/>
      </g>
     </g>
     <g id="text_29">
      <!-- 20 -->
      <g transform="translate(313.821682 336.171859) scale(0.06 -0.06)">
       <use xlink:href="#DejaVuSans-15"/>
       <use xlink:href="#DejaVuSans-13" transform="translate(63.625 0)"/>
      </g>
     </g>
    </g>
    <g id="xtick_27">
     <g id="line2d_48">
      <g>
       <use xlink:href="#mf5dbd6f67f" x="348.599568" y="324.613266" style="stroke: #000000; stroke-width: 0.8"/>
      </g>
     </g>
     <g id="text_30">
      <!-- 25 -->
      <g transform="translate(344.782068 336.171859) scale(0.06 -0.06)">
       <use xlink:href="#DejaVuSans-15"/>
       <use xlink:href="#DejaVuSans-18" transform="translate(63.625 0)"/>
      </g>
     </g>
    </g>
    <g id="xtick_28">
     <g id="line2d_49">
      <g>
       <use xlink:href="#mf5dbd6f67f" x="379.559955" y="324.613266" style="stroke: #000000; stroke-width: 0.8"/>
      </g>
     </g>
     <g id="text_31">
      <!-- 30 -->
      <g transform="translate(375.742455 336.171859) scale(0.06 -0.06)">
       <use xlink:href="#DejaVuSans-16"/>
       <use xlink:href="#DejaVuSans-13" transform="translate(63.625 0)"/>
      </g>
     </g>
    </g>
    <g id="text_32">
     <!-- Cognitive Load -->
     <g transform="translate(277.312695 347.632855) scale(0.07 -0.07)">
      <defs>
       <path id="DejaVuSans-26" d="M 4122 4306 
L 4122 3641 
Q 3803 3938 3442 4084 
Q 3081 4231 2675 4231 
Q 1875 4231 1450 3742 
Q 1025 3253 1025 2328 
Q 1025 1406 1450 917 
Q 1875 428 2675 428 
Q 3081 428 3442 575 
Q 3803 722 4122 1019 
L 4122 359 
Q 3791 134 3420 21 
Q 3050 -91 2638 -91 
Q 1578 -91 968 557 
Q 359 1206 359 2328 
Q 359 3453 968 4101 
Q 1578 4750 2638 4750 
Q 3056 4750 3426 4639 
Q 3797 4528 4122 4306 
z
" transform="scale(0.015625)"/>
       <path id="DejaVuSans-52" d="M 1959 3097 
Q 1497 3097 1228 2736 
Q 959 2375 959 1747 
Q 959 1119 1226 758 
Q 1494 397 1959 397 
Q 2419 397 2687 759 
Q 2956 1122 2956 1747 
Q 2956 2369 2687 2733 
Q 2419 3097 1959 3097 
z
M 1959 3584 
Q 2709 3584 3137 3096 
Q 3566 2609 3566 1747 
Q 3566 888 3137 398 
Q 2709 -91 1959 -91 
Q 1206 -91 779 398 
Q 353 888 353 1747 
Q 353 2609 779 3096 
Q 1206 3584 1959 3584 
z
" transform="scale(0.015625)"/>
       <path id="DejaVuSans-59" d="M 191 3500 
L 800 3500 
L 1894 563 
L 2988 3500 
L 3597 3500 
L 2284 0 
L 1503 0 
L 191 3500 
z
" transform="scale(0.015625)"/>
       <path id="DejaVuSans-2f" d="M 628 4666 
L 1259 4666 
L 1259 531 
L 3531 531 
L 3531 0 
L 628 0 
L 628 4666 
z
" transform="scale(0.015625)"/>
      </defs>
      <use xlink:href="#DejaVuSans-26"/>
      <use xlink:href="#DejaVuSans-52" transform="translate(69.828125 0)"/>
      <use xlink:href="#DejaVuSans-4a" transform="translate(131.015625 0)"/>
      <use xlink:href="#DejaVuSans-51" transform="translate(194.5 0)"/>
      <use xlink:href="#DejaVuSans-4c" transform="translate(257.875 0)"/>
      <use xlink:href="#DejaVuSans-57" transform="translate(285.65625 0)"/>
      <use xlink:href="#DejaVuSans-4c" transform="translate(324.859375 0)"/>
      <use xlink:href="#DejaVuSans-59" transform="translate(352.640625 0)"/>
      <use xlink:href="#DejaVuSans-48" transform="translate(411.828125 0)"/>
      <use xlink:href="#DejaVuSans-3" transform="translate(473.359375 0)"/>
      <use xlink:href="#DejaVuSans-2f" transform="translate(505.140625 0)"/>
      <use xlink:href="#DejaVuSans-52" transform="translate(559.109375 0)"/>
      <use xlink:href="#DejaVuSans-44" transform="translate(620.296875 0)"/>
      <use xlink:href="#DejaVuSans-47" transform="translate(681.578125 0)"/>
     </g>
     <!-- (Reorientation Rate, Hz) -->
     <g transform="translate(261.253164 356.03477) scale(0.07 -0.07)">
      <defs>
       <path id="DejaVuSans-f" d="M 750 794 
L 1409 794 
L 1409 256 
L 897 -744 
L 494 -744 
L 750 256 
L 750 794 
z
" transform="scale(0.015625)"/>
       <path id="DejaVuSans-2b" d="M 628 4666 
L 1259 4666 
L 1259 2753 
L 3553 2753 
L 3553 4666 
L 4184 4666 
L 4184 0 
L 3553 0 
L 3553 2222 
L 1259 2222 
L 1259 0 
L 628 0 
L 628 4666 
z
" transform="scale(0.015625)"/>
       <path id="DejaVuSans-5d" d="M 353 3500 
L 3084 3500 
L 3084 2975 
L 922 459 
L 3084 459 
L 3084 0 
L 275 0 
L 275 525 
L 2438 3041 
L 353 3041 
L 353 3500 
z
" transform="scale(0.015625)"/>
      </defs>
      <use xlink:href="#DejaVuSans-b"/>
      <use xlink:href="#DejaVuSans-35" transform="translate(39.015625 0)"/>
      <use xlink:href="#DejaVuSans-48" transform="translate(104.015625 0)"/>
      <use xlink:href="#DejaVuSans-52" transform="translate(165.546875 0)"/>
      <use xlink:href="#DejaVuSans-55" transform="translate(226.734375 0)"/>
      <use xlink:href="#DejaVuSans-4c" transform="translate(267.84375 0)"/>
      <use xlink:href="#DejaVuSans-48" transform="translate(295.625 0)"/>
      <use xlink:href="#DejaVuSans-51" transform="translate(357.15625 0)"/>
      <use xlink:href="#DejaVuSans-57" transform="translate(420.53125 0)"/>
      <use xlink:href="#DejaVuSans-44" transform="translate(459.734375 0)"/>
      <use xlink:href="#DejaVuSans-57" transform="translate(521.015625 0)"/>
      <use xlink:href="#DejaVuSans-4c" transform="translate(560.21875 0)"/>
      <use xlink:href="#DejaVuSans-52" transform="translate(588 0)"/>
      <use xlink:href="#DejaVuSans-51" transform="translate(649.1875 0)"/>
      <use xlink:href="#DejaVuSans-3" transform="translate(712.5625 0)"/>
      <use xlink:href="#DejaVuSans-35" transform="translate(744.34375 0)"/>
      <use xlink:href="#DejaVuSans-44" transform="translate(811.625 0)"/>
      <use xlink:href="#DejaVuSans-57" transform="translate(872.90625 0)"/>
      <use xlink:href="#DejaVuSans-48" transform="translate(912.109375 0)"/>
      <use xlink:href="#DejaVuSans-f" transform="translate(973.640625 0)"/>
      <use xlink:href="#DejaVuSans-3" transform="translate(1005.421875 0)"/>
      <use xlink:href="#DejaVuSans-2b" transform="translate(1037.203125 0)"/>
      <use xlink:href="#DejaVuSans-5d" transform="translate(1112.40625 0)"/>
      <use xlink:href="#DejaVuSans-c" transform="translate(1164.890625 0)"/>
     </g>
    </g>
   </g>
   <g id="matplotlib.axis_8">
    <g id="ytick_21">
     <g id="line2d_50">
      <g>
       <use xlink:href="#mb73866083d" x="221.155156" y="318.149616" style="stroke: #000000; stroke-width: 0.8"/>
      </g>
     </g>
    </g>
    <g id="ytick_22">
     <g id="line2d_51">
      <g>
       <use xlink:href="#mb73866083d" x="221.155156" y="290.289055" style="stroke: #000000; stroke-width: 0.8"/>
      </g>
     </g>
    </g>
    <g id="ytick_23">
     <g id="line2d_52">
      <g>
       <use xlink:href="#mb73866083d" x="221.155156" y="262.428494" style="stroke: #000000; stroke-width: 0.8"/>
      </g>
     </g>
    </g>
    <g id="ytick_24">
     <g id="line2d_53">
      <g>
       <use xlink:href="#mb73866083d" x="221.155156" y="234.567934" style="stroke: #000000; stroke-width: 0.8"/>
      </g>
     </g>
    </g>
   </g>
   <g id="line2d_54">
    <path d="M 277.390679 228.54148 
L 277.897303 229.21481 
L 278.403928 229.888139 
L 278.910552 230.561468 
L 279.417177 231.234798 
L 279.923801 231.908127 
L 280.430426 232.581456 
L 280.93705 233.254786 
L 281.443675 233.928115 
L 281.950299 234.601444 
L 282.456924 235.274774 
L 282.963548 235.948103 
L 283.470173 236.621433 
L 283.976797 237.294762 
L 284.483422 237.968091 
L 284.990046 238.641421 
L 285.496671 239.31475 
L 286.003295 239.988079 
L 286.50992 240.661409 
L 287.016545 241.334738 
L 287.523169 242.008067 
L 288.029794 242.681397 
L 288.536418 243.354726 
L 289.043043 244.028055 
L 289.549667 244.701385 
L 290.056292 245.374714 
L 290.562916 246.048043 
L 291.069541 246.721373 
L 291.576165 247.394702 
L 292.08279 248.068032 
L 292.589414 248.741361 
L 293.096039 249.41469 
L 293.602663 250.08802 
L 294.109288 250.761349 
L 294.615912 251.434678 
L 295.122537 252.108008 
L 295.629161 252.781337 
L 296.135786 253.454666 
L 296.64241 254.127996 
L 297.149035 254.801325 
L 297.655659 255.474654 
L 298.162284 256.147984 
L 298.668908 256.821313 
L 299.175533 257.494642 
L 299.682157 258.167972 
L 300.188782 258.841301 
L 300.695406 259.514631 
L 301.202031 260.18796 
L 301.708655 260.861289 
L 302.21528 261.534619 
L 302.721904 262.207948 
L 303.228529 262.881277 
L 303.735153 263.554607 
L 304.241778 264.227936 
L 304.748402 264.901265 
L 305.255027 265.574595 
L 305.761651 266.247924 
L 306.268276 266.921253 
L 306.7749 267.594583 
L 307.281525 268.267912 
L 307.788149 268.941241 
L 308.294774 269.614571 
L 308.801398 270.2879 
L 309.308023 270.961229 
L 309.814647 271.634559 
L 310.321272 272.307888 
L 310.827896 272.981218 
L 311.334521 273.654547 
L 311.841145 274.327876 
L 312.34777 275.001206 
L 312.854395 275.674535 
L 313.361019 276.347864 
L 313.867644 277.021194 
L 314.374268 277.694523 
L 314.880893 278.367852 
L 315.387517 279.041182 
L 315.894142 279.714511 
L 316.400766 280.38784 
L 316.907391 281.06117 
L 317.414015 281.734499 
L 317.92064 282.407828 
L 318.427264 283.081158 
L 318.933889 283.754487 
L 319.440513 284.427817 
L 319.947138 285.101146 
L 320.453762 285.774475 
L 320.960387 286.447805 
L 321.467011 287.121134 
L 321.973636 287.794463 
L 322.48026 288.467793 
L 322.986885 289.141122 
L 323.493509 289.814451 
L 324.000134 290.487781 
L 324.506758 291.16111 
L 325.013383 291.834439 
L 325.520007 292.507769 
L 326.026632 293.181098 
L 326.533256 293.854427 
L 327.039881 294.527757 
L 327.546505 295.201086 
" clip-path="url(#p8058c6fe61)" style="fill: none; stroke: #55a868; stroke-width: 1.2; stroke-linecap: square"/>
   </g>
   <g id="patch_19">
    <path d="M 221.155156 324.613266 
L 221.155156 206.930258 
" style="fill: none; stroke: #000000; stroke-width: 0.8; stroke-linejoin: miter; stroke-linecap: square"/>
   </g>
   <g id="patch_20">
    <path d="M 385.624609 324.613266 
L 385.624609 206.930258 
" style="fill: none; stroke: #000000; stroke-width: 0.8; stroke-linejoin: miter; stroke-linecap: square"/>
   </g>
   <g id="patch_21">
    <path d="M 221.155156 324.613266 
L 385.624609 324.613266 
" style="fill: none; stroke: #000000; stroke-width: 0.8; stroke-linejoin: miter; stroke-linecap: square"/>
   </g>
   <g id="patch_22">
    <path d="M 221.155156 206.930258 
L 385.624609 206.930258 
" style="fill: none; stroke: #000000; stroke-width: 0.8; stroke-linejoin: miter; stroke-linecap: square"/>
   </g>
   <g id="PathCollection_3">
    <g clip-path="url(#p8058c6fe61)">
     <use xlink:href="#ma75ff6e5fe" x="283.038517" y="257.970805" style="fill: #55a868; fill-opacity: 0.6; stroke: #ffffff; stroke-opacity: 0.6; stroke-width: 0.3"/>
     <use xlink:href="#ma75ff6e5fe" x="327.40284" y="319.264038" style="fill: #55a868; fill-opacity: 0.6; stroke: #ffffff; stroke-opacity: 0.6; stroke-width: 0.3"/>
     <use xlink:href="#ma75ff6e5fe" x="277.57577" y="212.279485" style="fill: #55a868; fill-opacity: 0.6; stroke: #ffffff; stroke-opacity: 0.6; stroke-width: 0.3"/>
     <use xlink:href="#ma75ff6e5fe" x="323.083179" y="257.970805" style="fill: #55a868; fill-opacity: 0.6; stroke: #ffffff; stroke-opacity: 0.6; stroke-width: 0.3"/>
    </g>
   </g>
   <g id="patch_23">
    <path d="M 222.955156 322.813266 
L 258.445156 322.813266 
L 258.445156 304.772953 
L 222.955156 304.772953 
z
" style="fill: #ffffff; stroke: #000000; stroke-linejoin: miter"/>
   </g>
   <g id="text_33">
    <!-- β=-0.148 -->
    <g transform="translate(224.755156 311.770102) scale(0.06 -0.06)">
     <defs>
      <path id="DejaVuSans-10" d="M 313 2009 
L 1997 2009 
L 1997 1497 
L 313 1497 
L 313 2009 
z
" transform="scale(0.015625)"/>
      <path id="DejaVuSans-1b" d="M 2034 2216 
Q 1584 2216 1326 1975 
Q 1069 1734 1069 1313 
Q 1069 891 1326 650 
Q 1584 409 2034 409 
Q 2484 409 2743 651 
Q 3003 894 3003 1313 
Q 3003 1734 2745 1975 
Q 2488 2216 2034 2216 
z
M 1403 2484 
Q 997 2584 770 2862 
Q 544 3141 544 3541 
Q 544 4100 942 4425 
Q 1341 4750 2034 4750 
Q 2731 4750 3128 4425 
Q 3525 4100 3525 3541 
Q 3525 3141 3298 2862 
Q 3072 2584 2669 2484 
Q 3125 2378 3379 2068 
Q 3634 1759 3634 1313 
Q 3634 634 3220 271 
Q 2806 -91 2034 -91 
Q 1263 -91 848 271 
Q 434 634 434 1313 
Q 434 1759 690 2068 
Q 947 2378 1403 2484 
z
M 1172 3481 
Q 1172 3119 1398 2916 
Q 1625 2713 2034 2713 
Q 2441 2713 2670 2916 
Q 2900 3119 2900 3481 
Q 2900 3844 2670 4047 
Q 2441 4250 2034 4250 
Q 1625 4250 1398 4047 
Q 1172 3844 1172 3481 
z
" transform="scale(0.015625)"/>
     </defs>
     <use xlink:href="#DejaVuSans-346"/>
     <use xlink:href="#DejaVuSans-20" transform="translate(63.8125 0)"/>
     <use xlink:href="#DejaVuSans-10" transform="translate(147.609375 0)"/>
     <use xlink:href="#DejaVuSans-13" transform="translate(183.6875 0)"/>
     <use xlink:href="#DejaVuSans-11" transform="translate(247.3125 0)"/>
     <use xlink:href="#DejaVuSans-14" transform="translate(279.09375 0)"/>
     <use xlink:href="#DejaVuSans-17" transform="translate(342.71875 0)"/>
     <use xlink:href="#DejaVuSans-1b" transform="translate(406.34375 0)"/>
    </g>
    <!-- R²=0.62ns -->
    <g transform="translate(224.755156 318.971273) scale(0.06 -0.06)">
     <use xlink:href="#DejaVuSans-35"/>
     <use xlink:href="#DejaVuSans-74" transform="translate(69.484375 0)"/>
     <use xlink:href="#DejaVuSans-20" transform="translate(109.578125 0)"/>
     <use xlink:href="#DejaVuSans-13" transform="translate(193.375 0)"/>
     <use xlink:href="#DejaVuSans-11" transform="translate(257 0)"/>
     <use xlink:href="#DejaVuSans-19" transform="translate(288.78125 0)"/>
     <use xlink:href="#DejaVuSans-15" transform="translate(352.40625 0)"/>
     <use xlink:href="#DejaVuSans-51" transform="translate(416.03125 0)"/>
     <use xlink:href="#DejaVuSans-56" transform="translate(479.40625 0)"/>
    </g>
   </g>
  </g>
  <g id="text_34">
   <!-- Dissociation of Cognitive Load Effects from Physical Load -->
   <g transform="translate(34.509141 15.799414) scale(0.1 -0.1)">
    <defs>
     <path id="DejaVuSans-Bold-27" d="M 1791 3756 
L 1791 909 
L 2222 909 
Q 2959 909 3348 1275 
Q 3738 1641 3738 2338 
Q 3738 3031 3350 3393 
Q 2963 3756 2222 3756 
L 1791 3756 
z
M 588 4666 
L 1856 4666 
Q 2919 4666 3439 4514 
Q 3959 4363 4331 4000 
Q 4659 3684 4818 3271 
Q 4978 2859 4978 2338 
Q 4978 1809 4818 1395 
Q 4659 981 4331 666 
Q 3956 303 3431 151 
Q 2906 0 1856 0 
L 588 0 
L 588 4666 
z
" transform="scale(0.015625)"/>
     <path id="DejaVuSans-Bold-57" d="M 1759 4494 
L 1759 3500 
L 2913 3500 
L 2913 2700 
L 1759 2700 
L 1759 1216 
Q 1759 972 1856 886 
Q 1953 800 2241 800 
L 2816 800 
L 2816 0 
L 1856 0 
Q 1194 0 917 276 
Q 641 553 641 1216 
L 641 2700 
L 84 2700 
L 84 3500 
L 641 3500 
L 641 4494 
L 1759 4494 
z
" transform="scale(0.015625)"/>
     <path id="DejaVuSans-Bold-51" d="M 4056 2131 
L 4056 0 
L 2931 0 
L 2931 347 
L 2931 1631 
Q 2931 2084 2911 2256 
Q 2891 2428 2841 2509 
Q 2775 2619 2662 2680 
Q 2550 2741 2406 2741 
Q 2056 2741 1856 2470 
Q 1656 2200 1656 1722 
L 1656 0 
L 538 0 
L 538 3500 
L 1656 3500 
L 1656 2988 
Q 1909 3294 2193 3439 
Q 2478 3584 2822 3584 
Q 3428 3584 3742 3212 
Q 4056 2841 4056 2131 
z
" transform="scale(0.015625)"/>
     <path id="DejaVuSans-Bold-49" d="M 2841 4863 
L 2841 4128 
L 2222 4128 
Q 1984 4128 1890 4042 
Q 1797 3956 1797 3744 
L 1797 3500 
L 2753 3500 
L 2753 2700 
L 1797 2700 
L 1797 0 
L 678 0 
L 678 2700 
L 122 2700 
L 122 3500 
L 678 3500 
L 678 3744 
Q 678 4316 997 4589 
Q 1316 4863 1984 4863 
L 2841 4863 
z
" transform="scale(0.015625)"/>
     <path id="DejaVuSans-Bold-26" d="M 4288 256 
Q 3956 84 3597 -3 
Q 3238 -91 2847 -91 
Q 1681 -91 1000 561 
Q 319 1213 319 2328 
Q 319 3447 1000 4098 
Q 1681 4750 2847 4750 
Q 3238 4750 3597 4662 
Q 3956 4575 4288 4403 
L 4288 3438 
Q 3953 3666 3628 3772 
Q 3303 3878 2944 3878 
Q 2300 3878 1931 3465 
Q 1563 3053 1563 2328 
Q 1563 1606 1931 1193 
Q 2300 781 2944 781 
Q 3303 781 3628 887 
Q 3953 994 4288 1222 
L 4288 256 
z
" transform="scale(0.015625)"/>
     <path id="DejaVuSans-Bold-59" d="M 97 3500 
L 1216 3500 
L 2088 1081 
L 2956 3500 
L 4078 3500 
L 2700 0 
L 1472 0 
L 97 3500 
z
" transform="scale(0.015625)"/>
     <path id="DejaVuSans-Bold-48" d="M 4031 1759 
L 4031 1441 
L 1416 1441 
Q 1456 1047 1700 850 
Q 1944 653 2381 653 
Q 2734 653 3104 758 
Q 3475 863 3866 1075 
L 3866 213 
Q 3469 63 3072 -14 
Q 2675 -91 2278 -91 
Q 1328 -91 801 392 
Q 275 875 275 1747 
Q 275 2603 792 3093 
Q 1309 3584 2216 3584 
Q 3041 3584 3536 3087 
Q 4031 2591 4031 1759 
z
M 2881 2131 
Q 2881 2450 2695 2645 
Q 2509 2841 2209 2841 
Q 1884 2841 1681 2658 
Q 1478 2475 1428 2131 
L 2881 2131 
z
" transform="scale(0.015625)"/>
     <path id="DejaVuSans-Bold-28" d="M 588 4666 
L 3834 4666 
L 3834 3756 
L 1791 3756 
L 1791 2888 
L 3713 2888 
L 3713 1978 
L 1791 1978 
L 1791 909 
L 3903 909 
L 3903 0 
L 588 0 
L 588 4666 
z
" transform="scale(0.015625)"/>
     <path id="DejaVuSans-Bold-13aa" d="M 2841 4863 
L 2841 4128 
L 2222 4128 
Q 1984 4128 1891 4044 
Q 1797 3956 1797 3744 
L 1797 3500 
L 3078 3500 
L 3078 3744 
Q 3078 4316 3397 4588 
Q 3716 4863 4384 4863 
L 5241 4863 
L 5241 4128 
L 4622 4128 
Q 4384 4128 4291 4044 
Q 4197 3956 4197 3744 
L 4197 3500 
L 5153 3500 
L 5153 2700 
L 4197 2700 
L 4197 0 
L 3078 0 
L 3078 2700 
L 1797 2700 
L 1797 0 
L 678 0 
L 678 2700 
L 122 2700 
L 122 3500 
L 678 3500 
L 678 3744 
Q 678 4316 997 4588 
Q 1316 4863 1984 4863 
L 2841 4863 
z
" transform="scale(0.015625)"/>
     <path id="DejaVuSans-Bold-55" d="M 3138 2547 
Q 2991 2616 2845 2648 
Q 2700 2681 2553 2681 
Q 2122 2681 1889 2404 
Q 1656 2128 1656 1613 
L 1656 0 
L 538 0 
L 538 3500 
L 1656 3500 
L 1656 2925 
Q 1872 3269 2151 3426 
Q 2431 3584 2822 3584 
Q 2878 3584 2943 3579 
Q 3009 3575 3134 3559 
L 3138 2547 
z
" transform="scale(0.015625)"/>
     <path id="DejaVuSans-Bold-50" d="M 3781 2919 
Q 3994 3244 4286 3414 
Q 4578 3584 4928 3584 
Q 5531 3584 5847 3212 
Q 6163 2841 6163 2131 
L 6163 0 
L 5038 0 
L 5038 1825 
Q 5041 1866 5042 1909 
Q 5044 1953 5044 2034 
Q 5044 2406 4934 2573 
Q 4825 2741 4581 2741 
Q 4263 2741 4089 2478 
Q 3916 2216 3909 1719 
L 3909 0 
L 2784 0 
L 2784 1825 
Q 2784 2406 2684 2573 
Q 2584 2741 2328 2741 
Q 2006 2741 1831 2477 
Q 1656 2213 1656 1722 
L 1656 0 
L 531 0 
L 531 3500 
L 1656 3500 
L 1656 2988 
Q 1863 3284 2130 3434 
Q 2397 3584 2719 3584 
Q 3081 3584 3359 3409 
Q 3638 3234 3781 2919 
z
" transform="scale(0.015625)"/>
    </defs>
    <use xlink:href="#DejaVuSans-Bold-27"/>
    <use xlink:href="#DejaVuSans-Bold-4c" transform="translate(83.015625 0)"/>
    <use xlink:href="#DejaVuSans-Bold-56" transform="translate(117.296875 0)"/>
    <use xlink:href="#DejaVuSans-Bold-56" transform="translate(176.8125 0)"/>
    <use xlink:href="#DejaVuSans-Bold-52" transform="translate(236.328125 0)"/>
    <use xlink:href="#DejaVuSans-Bold-46" transform="translate(305.03125 0)"/>
    <use xlink:href="#DejaVuSans-Bold-4c" transform="translate(364.3125 0)"/>
    <use xlink:href="#DejaVuSans-Bold-44" transform="translate(398.59375 0)"/>
    <use xlink:href="#DejaVuSans-Bold-57" transform="translate(466.078125 0)"/>
    <use xlink:href="#DejaVuSans-Bold-4c" transform="translate(513.875 0)"/>
    <use xlink:href="#DejaVuSans-Bold-52" transform="translate(548.15625 0)"/>
    <use xlink:href="#DejaVuSans-Bold-51" transform="translate(616.859375 0)"/>
    <use xlink:href="#DejaVuSans-Bold-3" transform="translate(688.046875 0)"/>
    <use xlink:href="#DejaVuSans-Bold-52" transform="translate(722.859375 0)"/>
    <use xlink:href="#DejaVuSans-Bold-49" transform="translate(791.5625 0)"/>
    <use xlink:href="#DejaVuSans-Bold-3" transform="translate(835.0625 0)"/>
    <use xlink:href="#DejaVuSans-Bold-26" transform="translate(869.875 0)"/>
    <use xlink:href="#DejaVuSans-Bold-52" transform="translate(943.265625 0)"/>
    <use xlink:href="#DejaVuSans-Bold-4a" transform="translate(1011.96875 0)"/>
    <use xlink:href="#DejaVuSans-Bold-51" transform="translate(1083.546875 0)"/>
    <use xlink:href="#DejaVuSans-Bold-4c" transform="translate(1154.734375 0)"/>
    <use xlink:href="#DejaVuSans-Bold-57" transform="translate(1189.015625 0)"/>
    <use xlink:href="#DejaVuSans-Bold-4c" transform="translate(1236.8125 0)"/>
    <use xlink:href="#DejaVuSans-Bold-59" transform="translate(1271.09375 0)"/>
    <use xlink:href="#DejaVuSans-Bold-48" transform="translate(1336.28125 0)"/>
    <use xlink:href="#DejaVuSans-Bold-3" transform="translate(1404.109375 0)"/>
    <use xlink:href="#DejaVuSans-Bold-2f" transform="translate(1438.921875 0)"/>
    <use xlink:href="#DejaVuSans-Bold-52" transform="translate(1502.640625 0)"/>
    <use xlink:href="#DejaVuSans-Bold-44" transform="translate(1571.34375 0)"/>
    <use xlink:href="#DejaVuSans-Bold-47" transform="translate(1638.828125 0)"/>
    <use xlink:href="#DejaVuSans-Bold-3" transform="translate(1710.40625 0)"/>
    <use xlink:href="#DejaVuSans-Bold-28" transform="translate(1745.21875 0)"/>
    <use xlink:href="#DejaVuSans-Bold-13aa" transform="translate(1813.53125 0)"/>
    <use xlink:href="#DejaVuSans-Bold-48" transform="translate(1894.53125 0)"/>
    <use xlink:href="#DejaVuSans-Bold-46" transform="translate(1962.359375 0)"/>
    <use xlink:href="#DejaVuSans-Bold-57" transform="translate(2021.640625 0)"/>
    <use xlink:href="#DejaVuSans-Bold-56" transform="translate(2069.4375 0)"/>
    <use xlink:href="#DejaVuSans-Bold-3" transform="translate(2128.953125 0)"/>
    <use xlink:href="#DejaVuSans-Bold-49" transform="translate(2163.765625 0)"/>
    <use xlink:href="#DejaVuSans-Bold-55" transform="translate(2207.265625 0)"/>
    <use xlink:href="#DejaVuSans-Bold-52" transform="translate(2256.578125 0)"/>
    <use xlink:href="#DejaVuSans-Bold-50" transform="translate(2325.28125 0)"/>
    <use xlink:href="#DejaVuSans-Bold-3" transform="translate(2429.484375 0)"/>
    <use xlink:href="#DejaVuSans-Bold-33" transform="translate(2464.296875 0)"/>
    <use xlink:href="#DejaVuSans-Bold-4b" transform="translate(2537.59375 0)"/>
    <use xlink:href="#DejaVuSans-Bold-5c" transform="translate(2608.78125 0)"/>
    <use xlink:href="#DejaVuSans-Bold-56" transform="translate(2673.96875 0)"/>
    <use xlink:href="#DejaVuSans-Bold-4c" transform="translate(2733.484375 0)"/>
    <use xlink:href="#DejaVuSans-Bold-46" transform="translate(2767.765625 0)"/>
    <use xlink:href="#DejaVuSans-Bold-44" transform="translate(2827.046875 0)"/>
    <use xlink:href="#DejaVuSans-Bold-4f" transform="translate(2894.53125 0)"/>
    <use xlink:href="#DejaVuSans-Bold-3" transform="translate(2928.8125 0)"/>
    <use xlink:href="#DejaVuSans-Bold-2f" transform="translate(2963.625 0)"/>
    <use xlink:href="#DejaVuSans-Bold-52" transform="translate(3027.34375 0)"/>
    <use xlink:href="#DejaVuSans-Bold-44" transform="translate(3096.046875 0)"/>
    <use xlink:href="#DejaVuSans-Bold-47" transform="translate(3163.53125 0)"/>
   </g>
   <!-- in Defensive Performance Signals -->
   <g transform="translate(101.146641 27.802148) scale(0.1 -0.1)">
    <defs>
     <path id="DejaVuSans-Bold-36" d="M 3834 4519 
L 3834 3531 
Q 3450 3703 3084 3790 
Q 2719 3878 2394 3878 
Q 1963 3878 1756 3759 
Q 1550 3641 1550 3391 
Q 1550 3203 1689 3098 
Q 1828 2994 2194 2919 
L 2706 2816 
Q 3484 2659 3812 2340 
Q 4141 2022 4141 1434 
Q 4141 663 3683 286 
Q 3225 -91 2284 -91 
Q 1841 -91 1394 -6 
Q 947 78 500 244 
L 500 1259 
Q 947 1022 1364 901 
Q 1781 781 2169 781 
Q 2563 781 2772 912 
Q 2981 1044 2981 1288 
Q 2981 1506 2839 1625 
Q 2697 1744 2272 1838 
L 1806 1941 
Q 1106 2091 782 2419 
Q 459 2747 459 3303 
Q 459 4000 909 4375 
Q 1359 4750 2203 4750 
Q 2588 4750 2994 4692 
Q 3400 4634 3834 4519 
z
" transform="scale(0.015625)"/>
    </defs>
    <use xlink:href="#DejaVuSans-Bold-4c"/>
    <use xlink:href="#DejaVuSans-Bold-51" transform="translate(34.28125 0)"/>
    <use xlink:href="#DejaVuSans-Bold-3" transform="translate(105.46875 0)"/>
    <use xlink:href="#DejaVuSans-Bold-27" transform="translate(140.28125 0)"/>
    <use xlink:href="#DejaVuSans-Bold-48" transform="translate(223.296875 0)"/>
    <use xlink:href="#DejaVuSans-Bold-49" transform="translate(291.125 0)"/>
    <use xlink:href="#DejaVuSans-Bold-48" transform="translate(334.625 0)"/>
    <use xlink:href="#DejaVuSans-Bold-51" transform="translate(402.453125 0)"/>
    <use xlink:href="#DejaVuSans-Bold-56" transform="translate(473.640625 0)"/>
    <use xlink:href="#DejaVuSans-Bold-4c" transform="translate(533.15625 0)"/>
    <use xlink:href="#DejaVuSans-Bold-59" transform="translate(567.4375 0)"/>
    <use xlink:href="#DejaVuSans-Bold-48" transform="translate(632.625 0)"/>
    <use xlink:href="#DejaVuSans-Bold-3" transform="translate(700.453125 0)"/>
    <use xlink:href="#DejaVuSans-Bold-33" transform="translate(735.265625 0)"/>
    <use xlink:href="#DejaVuSans-Bold-48" transform="translate(808.5625 0)"/>
    <use xlink:href="#DejaVuSans-Bold-55" transform="translate(876.390625 0)"/>
    <use xlink:href="#DejaVuSans-Bold-49" transform="translate(925.703125 0)"/>
    <use xlink:href="#DejaVuSans-Bold-52" transform="translate(969.203125 0)"/>
    <use xlink:href="#DejaVuSans-Bold-55" transform="translate(1037.90625 0)"/>
    <use xlink:href="#DejaVuSans-Bold-50" transform="translate(1087.21875 0)"/>
    <use xlink:href="#DejaVuSans-Bold-44" transform="translate(1191.421875 0)"/>
    <use xlink:href="#DejaVuSans-Bold-51" transform="translate(1258.90625 0)"/>
    <use xlink:href="#DejaVuSans-Bold-46" transform="translate(1330.09375 0)"/>
    <use xlink:href="#DejaVuSans-Bold-48" transform="translate(1389.375 0)"/>
    <use xlink:href="#DejaVuSans-Bold-3" transform="translate(1457.203125 0)"/>
    <use xlink:href="#DejaVuSans-Bold-36" transform="translate(1492.015625 0)"/>
    <use xlink:href="#DejaVuSans-Bold-4c" transform="translate(1564.03125 0)"/>
    <use xlink:href="#DejaVuSans-Bold-4a" transform="translate(1598.3125 0)"/>
    <use xlink:href="#DejaVuSans-Bold-51" transform="translate(1669.890625 0)"/>
    <use xlink:href="#DejaVuSans-Bold-44" transform="translate(1741.078125 0)"/>
    <use xlink:href="#DejaVuSans-Bold-4f" transform="translate(1808.5625 0)"/>
    <use xlink:href="#DejaVuSans-Bold-56" transform="translate(1842.84375 0)"/>
   </g>
   <!-- (Y: Raw Signal Values) -->
   <g transform="translate(133.291172 39.804883) scale(0.1 -0.1)">
    <defs>
     <path id="DejaVuSans-Bold-b" d="M 2413 -844 
L 1484 -844 
Q 1006 -72 778 623 
Q 550 1319 550 2003 
Q 550 2688 779 3389 
Q 1009 4091 1484 4856 
L 2413 4856 
Q 2013 4116 1813 3408 
Q 1613 2700 1613 2009 
Q 1613 1319 1811 609 
Q 2009 -100 2413 -844 
z
" transform="scale(0.015625)"/>
     <path id="DejaVuSans-Bold-3c" d="M -63 4666 
L 1253 4666 
L 2316 3003 
L 3378 4666 
L 4697 4666 
L 2919 1966 
L 2919 0 
L 1716 0 
L 1716 1966 
L -63 4666 
z
" transform="scale(0.015625)"/>
     <path id="DejaVuSans-Bold-1d" d="M 716 3500 
L 1844 3500 
L 1844 2291 
L 716 2291 
L 716 3500 
z
M 716 1209 
L 1844 1209 
L 1844 0 
L 716 0 
L 716 1209 
z
" transform="scale(0.015625)"/>
     <path id="DejaVuSans-Bold-35" d="M 2297 2597 
Q 2675 2597 2839 2737 
Q 3003 2878 3003 3200 
Q 3003 3519 2839 3656 
Q 2675 3794 2297 3794 
L 1791 3794 
L 1791 2597 
L 2297 2597 
z
M 1791 1766 
L 1791 0 
L 588 0 
L 588 4666 
L 2425 4666 
Q 3347 4666 3776 4356 
Q 4206 4047 4206 3378 
Q 4206 2916 3982 2619 
Q 3759 2322 3309 2181 
Q 3556 2125 3751 1926 
Q 3947 1728 4147 1325 
L 4800 0 
L 3519 0 
L 2950 1159 
Q 2778 1509 2601 1637 
Q 2425 1766 2131 1766 
L 1791 1766 
z
" transform="scale(0.015625)"/>
     <path id="DejaVuSans-Bold-39" d="M 31 4666 
L 1241 4666 
L 2478 1222 
L 3713 4666 
L 4922 4666 
L 3194 0 
L 1759 0 
L 31 4666 
z
" transform="scale(0.015625)"/>
     <path id="DejaVuSans-Bold-58" d="M 500 1363 
L 500 3500 
L 1625 3500 
L 1625 3150 
Q 1625 2866 1622 2436 
Q 1619 2006 1619 1863 
Q 1619 1441 1641 1255 
Q 1663 1069 1716 984 
Q 1784 875 1895 815 
Q 2006 756 2150 756 
Q 2500 756 2700 1025 
Q 2900 1294 2900 1772 
L 2900 3500 
L 4019 3500 
L 4019 0 
L 2900 0 
L 2900 506 
Q 2647 200 2364 54 
Q 2081 -91 1741 -91 
Q 1134 -91 817 281 
Q 500 653 500 1363 
z
" transform="scale(0.015625)"/>
     <path id="DejaVuSans-Bold-c" d="M 513 -844 
Q 913 -100 1113 609 
Q 1313 1319 1313 2009 
Q 1313 2700 1113 3408 
Q 913 4116 513 4856 
L 1441 4856 
Q 1916 4091 2145 3389 
Q 2375 2688 2375 2003 
Q 2375 1319 2147 623 
Q 1919 -72 1441 -844 
L 513 -844 
z
" transform="scale(0.015625)"/>
    </defs>
    <use xlink:href="#DejaVuSans-Bold-b"/>
    <use xlink:href="#DejaVuSans-Bold-3c" transform="translate(45.703125 0)"/>
    <use xlink:href="#DejaVuSans-Bold-1d" transform="translate(109.421875 0)"/>
    <use xlink:href="#DejaVuSans-Bold-3" transform="translate(149.40625 0)"/>
    <use xlink:href="#DejaVuSans-Bold-35" transform="translate(184.21875 0)"/>
    <use xlink:href="#DejaVuSans-Bold-44" transform="translate(261.21875 0)"/>
    <use xlink:href="#DejaVuSans-Bold-5a" transform="translate(328.703125 0)"/>
    <use xlink:href="#DejaVuSans-Bold-3" transform="translate(421.09375 0)"/>
    <use xlink:href="#DejaVuSans-Bold-36" transform="translate(455.90625 0)"/>
    <use xlink:href="#DejaVuSans-Bold-4c" transform="translate(527.921875 0)"/>
    <use xlink:href="#DejaVuSans-Bold-4a" transform="translate(562.203125 0)"/>
    <use xlink:href="#DejaVuSans-Bold-51" transform="translate(633.78125 0)"/>
    <use xlink:href="#DejaVuSans-Bold-44" transform="translate(704.96875 0)"/>
    <use xlink:href="#DejaVuSans-Bold-4f" transform="translate(772.453125 0)"/>
    <use xlink:href="#DejaVuSans-Bold-3" transform="translate(806.734375 0)"/>
    <use xlink:href="#DejaVuSans-Bold-39" transform="translate(841.546875 0)"/>
    <use xlink:href="#DejaVuSans-Bold-44" transform="translate(913.46875 0)"/>
    <use xlink:href="#DejaVuSans-Bold-4f" transform="translate(980.953125 0)"/>
    <use xlink:href="#DejaVuSans-Bold-58" transform="translate(1015.234375 0)"/>
    <use xlink:href="#DejaVuSans-Bold-48" transform="translate(1086.421875 0)"/>
    <use xlink:href="#DejaVuSans-Bold-56" transform="translate(1154.25 0)"/>
    <use xlink:href="#DejaVuSans-Bold-c" transform="translate(1213.765625 0)"/>
   </g>
  </g>
 </g>
 <defs>
  <clipPath id="p6efef12bb1">
   <rect x="44.545703" y="77.10725" width="164.469453" height="117.683008"/>
  </clipPath>
  <clipPath id="pa89d201b4b">
   <rect x="221.155156" y="77.10725" width="164.469453" height="117.683008"/>
  </clipPath>
  <clipPath id="p8058c6fe61">
   <rect x="221.155156" y="206.930258" width="164.469453" height="117.683008"/>
  </clipPath>
 </defs>
</svg>
